<svg xmlns="http://www.w3.org/2000/svg" xmlns:xlink="http://www.w3.org/1999/xlink" width="325" zoomAndPan="magnify" viewBox="0 0 243.75 243.75" height="325" preserveAspectRatio="xMidYMid meet" version="1.2"><defs><clipPath id="756c5e40d9"><path d="M 0 0 L 243.5 0 L 243.5 243.5 L 0 243.5 Z M 0 0 "/></clipPath><clipPath id="c323f167d0"><path d="M 0 37.460938 L 0 205.921875 C 0 226.609375 16.773438 243.382812 37.460938 243.382812 L 205.921875 243.382812 C 226.609375 243.382812 243.382812 226.609375 243.382812 205.921875 L 243.382812 37.460938 C 243.382812 16.773438 226.609375 0 205.921875 0 L 37.460938 0 C 16.773438 0 0 16.773438 0 37.460938 Z M 0 37.460938 "/></clipPath><clipPath id="c9d1fb6069"><path d="M 74 47 L 181 47 L 181 196 L 74 196 Z M 74 47 "/></clipPath><clipPath id="5ef15f8e03"><path d="M 0 37.460938 L 0 205.921875 C 0 226.609375 16.773438 243.382812 37.460938 243.382812 L 205.921875 243.382812 C 226.609375 243.382812 243.382812 226.609375 243.382812 205.921875 L 243.382812 37.460938 C 243.382812 16.773438 226.609375 0 205.921875 0 L 37.460938 0 C 16.773438 0 0 16.773438 0 37.460938 Z M 0 37.460938 "/></clipPath><clipPath id="66b1b9a79a"><path d="M 154 84 L 181 84 L 181 196 L 154 196 Z M 154 84 "/></clipPath><clipPath id="f74bcafabf"><path d="M 0 37.460938 L 0 205.921875 C 0 226.609375 16.773438 243.382812 37.460938 243.382812 L 205.921875 243.382812 C 226.609375 243.382812 243.382812 226.609375 243.382812 205.921875 L 243.382812 37.460938 C 243.382812 16.773438 226.609375 0 205.921875 0 L 37.460938 0 C 16.773438 0 0 16.773438 0 37.460938 Z M 0 37.460938 "/></clipPath><clipPath id="be7a33069e"><path d="M 83 107 L 122 107 L 122 177 L 83 177 Z M 83 107 "/></clipPath><clipPath id="088eca2283"><path d="M 0 37.460938 L 0 205.921875 C 0 226.609375 16.773438 243.382812 37.460938 243.382812 L 205.921875 243.382812 C 226.609375 243.382812 243.382812 226.609375 243.382812 205.921875 L 243.382812 37.460938 C 243.382812 16.773438 226.609375 0 205.921875 0 L 37.460938 0 C 16.773438 0 0 16.773438 0 37.460938 Z M 0 37.460938 "/></clipPath><clipPath id="2aec7fdefa"><path d="M 75 139 L 123 139 L 123 190 L 75 190 Z M 75 139 "/></clipPath><clipPath id="25dfe3c26b"><path d="M 0 37.460938 L 0 205.921875 C 0 226.609375 16.773438 243.382812 37.460938 243.382812 L 205.921875 243.382812 C 226.609375 243.382812 243.382812 226.609375 243.382812 205.921875 L 243.382812 37.460938 C 243.382812 16.773438 226.609375 0 205.921875 0 L 37.460938 0 C 16.773438 0 0 16.773438 0 37.460938 Z M 0 37.460938 "/></clipPath><clipPath id="a762be27ae"><path d="M 83 107 L 121 107 L 121 141 L 83 141 Z M 83 107 "/></clipPath><clipPath id="01cd057769"><path d="M 0 37.460938 L 0 205.921875 C 0 226.609375 16.773438 243.382812 37.460938 243.382812 L 205.921875 243.382812 C 226.609375 243.382812 243.382812 226.609375 243.382812 205.921875 L 243.382812 37.460938 C 243.382812 16.773438 226.609375 0 205.921875 0 L 37.460938 0 C 16.773438 0 0 16.773438 0 37.460938 Z M 0 37.460938 "/></clipPath><clipPath id="e4a9756eff"><path d="M 159 185 L 178 185 L 178 196 L 159 196 Z M 159 185 "/></clipPath><clipPath id="552efbd538"><path d="M 0 37.460938 L 0 205.921875 C 0 226.609375 16.773438 243.382812 37.460938 243.382812 L 205.921875 243.382812 C 226.609375 243.382812 243.382812 226.609375 243.382812 205.921875 L 243.382812 37.460938 C 243.382812 16.773438 226.609375 0 205.921875 0 L 37.460938 0 C 16.773438 0 0 16.773438 0 37.460938 Z M 0 37.460938 "/></clipPath><clipPath id="af57fe8b9b"><path d="M 88 183 L 90 183 L 90 185 L 88 185 Z M 88 183 "/></clipPath><clipPath id="652422eeae"><path d="M 0 37.460938 L 0 205.921875 C 0 226.609375 16.773438 243.382812 37.460938 243.382812 L 205.921875 243.382812 C 226.609375 243.382812 243.382812 226.609375 243.382812 205.921875 L 243.382812 37.460938 C 243.382812 16.773438 226.609375 0 205.921875 0 L 37.460938 0 C 16.773438 0 0 16.773438 0 37.460938 Z M 0 37.460938 "/></clipPath><clipPath id="57f023601c"><path d="M 75.460938 197.730469 L 167.617188 197.730469 L 167.617188 243.433594 L 75.460938 243.433594 Z M 75.460938 197.730469 "/></clipPath><clipPath id="3aec262f71"><path d="M 75.460938 220.410156 C 75.460938 226.425781 77.851562 232.191406 82.105469 236.445312 C 86.359375 240.699219 92.125 243.089844 98.140625 243.089844 L 145.242188 243.089844 C 151.257812 243.089844 157.023438 240.699219 161.277344 236.445312 C 165.53125 232.191406 167.921875 226.425781 167.921875 220.410156 C 167.921875 214.394531 165.53125 208.628906 161.277344 204.375 C 157.023438 200.121094 151.257812 197.730469 145.242188 197.730469 L 98.140625 197.730469 C 92.125 197.730469 86.359375 200.121094 82.105469 204.375 C 77.851562 208.628906 75.460938 214.394531 75.460938 220.410156 Z M 75.460938 220.410156 "/></clipPath><clipPath id="90f1cb47da"><path d="M 81 207 L 161 207 L 161 236 L 81 236 Z M 81 207 "/></clipPath><clipPath id="a8d86723cc"><path d="M 75.460938 220.410156 C 75.460938 226.425781 77.851562 232.191406 82.105469 236.445312 C 86.359375 240.699219 92.125 243.089844 98.140625 243.089844 L 145.242188 243.089844 C 151.257812 243.089844 157.023438 240.699219 161.277344 236.445312 C 165.53125 232.191406 167.921875 226.425781 167.921875 220.410156 C 167.921875 214.394531 165.53125 208.628906 161.277344 204.375 C 157.023438 200.121094 151.257812 197.730469 145.242188 197.730469 L 98.140625 197.730469 C 92.125 197.730469 86.359375 200.121094 82.105469 204.375 C 77.851562 208.628906 75.460938 214.394531 75.460938 220.410156 Z M 75.460938 220.410156 "/></clipPath><clipPath id="fd7c5a0626"><path d="M 105 216 L 114 216 L 114 228 L 105 228 Z M 105 216 "/></clipPath><clipPath id="0c71363eaf"><path d="M 75.460938 220.410156 C 75.460938 226.425781 77.851562 232.191406 82.105469 236.445312 C 86.359375 240.699219 92.125 243.089844 98.140625 243.089844 L 145.242188 243.089844 C 151.257812 243.089844 157.023438 240.699219 161.277344 236.445312 C 165.53125 232.191406 167.921875 226.425781 167.921875 220.410156 C 167.921875 214.394531 165.53125 208.628906 161.277344 204.375 C 157.023438 200.121094 151.257812 197.730469 145.242188 197.730469 L 98.140625 197.730469 C 92.125 197.730469 86.359375 200.121094 82.105469 204.375 C 77.851562 208.628906 75.460938 214.394531 75.460938 220.410156 Z M 75.460938 220.410156 "/></clipPath><clipPath id="076a84fba7"><path d="M 121 207 L 159 207 L 159 230 L 121 230 Z M 121 207 "/></clipPath><clipPath id="638262f24b"><path d="M 75.460938 220.410156 C 75.460938 226.425781 77.851562 232.191406 82.105469 236.445312 C 86.359375 240.699219 92.125 243.089844 98.140625 243.089844 L 145.242188 243.089844 C 151.257812 243.089844 157.023438 240.699219 161.277344 236.445312 C 165.53125 232.191406 167.921875 226.425781 167.921875 220.410156 C 167.921875 214.394531 165.53125 208.628906 161.277344 204.375 C 157.023438 200.121094 151.257812 197.730469 145.242188 197.730469 L 98.140625 197.730469 C 92.125 197.730469 86.359375 200.121094 82.105469 204.375 C 77.851562 208.628906 75.460938 214.394531 75.460938 220.410156 Z M 75.460938 220.410156 "/></clipPath></defs><g id="e2e61bf3ff"><g clip-rule="nonzero" clip-path="url(#756c5e40d9)"><g clip-rule="nonzero" clip-path="url(#c323f167d0)"><path style=" stroke:none;fill-rule:nonzero;fill:#fdfdfd;fill-opacity:1;" d="M 0 0 L 243.5 0 L 243.5 243.5 L 0 243.5 Z M 0 0 "/></g></g><g clip-rule="nonzero" clip-path="url(#c9d1fb6069)"><g clip-rule="nonzero" clip-path="url(#5ef15f8e03)"><path style=" stroke:none;fill-rule:nonzero;fill:#61acb8;fill-opacity:1;" d="M 141.722656 47.734375 C 143.304688 47.695312 144.8125 48.003906 146.234375 48.699219 C 147.441406 49.410156 148.324219 50.300781 149.023438 51.511719 C 149.46875 52.4375 149.578125 53.28125 149.539062 54.304688 C 149.457031 54.988281 149.304688 55.554688 148.941406 56.140625 C 148.257812 56.871094 147.394531 57.210938 146.449219 57.5 L 145.941406 57.652344 C 144.066406 58.25 142.574219 59.46875 141.230469 60.875 C 140.84375 61.308594 140.488281 61.757812 140.148438 62.226562 L 139.941406 62.507812 C 139.257812 63.472656 138.765625 64.546875 138.253906 65.609375 L 138.097656 65.929688 C 137.523438 67.109375 136.96875 68.28125 136.519531 69.511719 C 136.386719 69.863281 136.25 70.210938 136.109375 70.558594 C 135.835938 71.246094 135.582031 71.9375 135.335938 72.636719 L 135.203125 73.011719 C 134.867188 73.964844 134.53125 74.914062 134.191406 75.867188 L 134.046875 76.273438 C 133.753906 77.105469 133.453125 77.9375 133.152344 78.765625 C 132.398438 80.824219 131.714844 82.902344 131.027344 84.980469 C 130.699219 85.980469 130.367188 86.980469 130.03125 87.980469 C 129.929688 88.296875 129.824219 88.609375 129.722656 88.921875 L 129.527344 89.5 L 129.359375 90.007812 C 129.179688 90.539062 128.984375 91.058594 128.785156 91.582031 L 129.054688 91.582031 L 129.164062 91.34375 C 129.332031 91.027344 129.511719 90.824219 129.761719 90.574219 L 130.621094 89.714844 C 130.832031 89.507812 131.042969 89.296875 131.25 89.089844 C 131.570312 88.769531 131.890625 88.453125 132.207031 88.132812 C 132.414062 87.929688 132.617188 87.726562 132.824219 87.523438 L 133.109375 87.238281 C 133.71875 86.628906 134.355469 86.058594 135.007812 85.496094 C 135.152344 85.367188 135.296875 85.238281 135.441406 85.109375 C 136.675781 84.019531 137.984375 83.054688 139.335938 82.113281 L 139.597656 81.929688 C 140.640625 81.203125 141.71875 80.542969 142.820312 79.90625 L 143.167969 79.707031 C 147.707031 77.128906 152.988281 75.71875 158.195312 75.722656 C 159.648438 75.734375 161.042969 75.878906 162.46875 76.160156 L 162.828125 76.230469 C 166.382812 76.953125 169.9375 78.429688 172.703125 80.820312 C 173.058594 81.136719 173.40625 81.457031 173.746094 81.78125 C 174.09375 82.117188 174.09375 82.117188 174.460938 82.398438 C 174.953125 82.792969 175.328125 83.25 175.726562 83.738281 L 175.90625 83.957031 C 177.601562 86.058594 178.785156 88.308594 179.515625 90.90625 L 179.644531 91.363281 C 179.957031 92.59375 180.089844 93.839844 180.191406 95.101562 L 180.21875 95.460938 C 181.136719 107.980469 177.726562 121.132812 174.980469 137.84375 L 174.757812 139.167969 C 174.082031 143.175781 173.472656 147.195312 172.863281 151.21875 C 172.648438 152.652344 172.429688 154.082031 172.207031 155.515625 C 172.160156 155.828125 172.109375 156.140625 172.0625 156.449219 C 171.925781 157.359375 171.78125 158.265625 171.636719 159.175781 C 169.226562 171.253906 169.226562 171.253906 170.492188 183.246094 C 171.046875 184.445312 171.820312 185.492188 172.894531 186.269531 C 173.703125 186.792969 174.425781 187.132812 175.398438 187.21875 C 175.964844 187.230469 176.519531 187.164062 177.078125 187.089844 C 177.136719 188.792969 176.890625 190.417969 176.132812 191.960938 C 175.703125 192.667969 175.117188 193.101562 174.402344 193.5 C 171.667969 194.863281 168.808594 195.910156 165.714844 195.746094 C 163.144531 195.582031 160.75 195.054688 158.554688 193.660156 L 158.273438 193.449219 L 158.273438 193.175781 L 158.03125 193.066406 C 157.234375 192.640625 156.722656 191.902344 156.238281 191.15625 C 154.84375 188.792969 154.230469 186 154.1875 183.273438 L 154.183594 182.917969 L 154.179688 182.539062 C 154.152344 179.230469 154.335938 176.027344 154.757812 172.75 L 154.796875 172.457031 C 155.230469 169.09375 155.734375 165.742188 156.269531 162.394531 C 156.332031 162.003906 156.394531 161.613281 156.457031 161.222656 C 156.984375 157.921875 157.527344 154.628906 158.113281 151.339844 C 158.820312 147.367188 159.46875 143.390625 160.117188 139.414062 L 160.28125 138.414062 C 160.625 136.316406 160.964844 134.214844 161.308594 132.117188 L 161.550781 130.617188 C 162.433594 125.183594 162.433594 125.183594 163.238281 119.738281 L 163.3125 119.210938 C 165.671875 107.199219 165.671875 107.199219 164.480469 95.335938 C 163.746094 93.71875 162.4375 92.214844 161.019531 91.136719 C 160.484375 90.757812 159.925781 90.421875 159.355469 90.09375 C 159.226562 90.019531 159.09375 89.941406 158.957031 89.863281 C 156.585938 88.585938 153.707031 88.125 151.03125 88.152344 C 146.128906 88.316406 140.914062 89.792969 136.738281 92.378906 C 135.265625 93.308594 133.875 94.351562 132.574219 95.507812 L 132.199219 95.828125 C 131.527344 96.417969 130.925781 97.03125 130.351562 97.71875 L 130.136719 97.941406 L 129.867188 97.941406 L 129.757812 98.179688 C 129.597656 98.480469 129.425781 98.707031 129.207031 98.964844 C 126.691406 102.152344 125.152344 105.859375 124.523438 109.859375 C 124.390625 110.796875 124.28125 111.742188 124.183594 112.6875 L 124.128906 113.199219 C 123.617188 118.976562 124.539062 125.148438 126.214844 130.679688 L 126.328125 131.0625 C 127.058594 133.476562 128.027344 135.808594 128.960938 138.152344 C 130.691406 142.488281 130.691406 142.488281 130.949219 144.207031 L 131.023438 144.691406 C 131.238281 146.320312 130.929688 147.839844 130.324219 149.363281 C 129.890625 150.320312 129.320312 151.113281 128.648438 151.917969 L 128.386719 152.234375 C 127.695312 153.027344 126.949219 153.765625 126.207031 154.511719 L 125.894531 154.824219 C 125.257812 155.460938 124.597656 156.066406 123.914062 156.652344 C 123.761719 156.785156 123.613281 156.914062 123.460938 157.046875 C 122.601562 157.792969 121.730469 158.515625 120.832031 159.210938 C 120.1875 159.710938 119.566406 160.234375 118.957031 160.773438 C 118.554688 161.121094 118.199219 161.359375 117.691406 161.523438 L 117.691406 161.792969 C 117.410156 162.03125 117.125 162.261719 116.828125 162.484375 L 116.304688 162.890625 L 116.042969 163.089844 C 115.71875 163.34375 115.398438 163.597656 115.078125 163.855469 L 114.445312 164.363281 L 114.101562 164.640625 L 113.769531 164.902344 L 113.472656 165.140625 L 113.226562 165.308594 L 112.957031 165.308594 L 112.957031 165.582031 C 112.6875 165.8125 112.410156 166.035156 112.128906 166.25 L 111.609375 166.648438 L 111.335938 166.859375 C 110.898438 167.195312 110.464844 167.539062 110.03125 167.878906 C 109.746094 168.105469 109.457031 168.332031 109.167969 168.554688 L 108.863281 168.800781 L 108.628906 168.960938 L 108.359375 168.960938 L 108.359375 169.234375 C 108.109375 169.441406 107.855469 169.640625 107.597656 169.832031 C 107.433594 169.957031 107.269531 170.078125 107.109375 170.203125 L 106.851562 170.394531 C 106.453125 170.695312 106.0625 171.003906 105.667969 171.3125 L 105.433594 171.5 C 104.847656 171.960938 104.265625 172.425781 103.683594 172.894531 C 102.902344 173.519531 102.113281 174.136719 101.316406 174.742188 C 100.851562 175.101562 100.390625 175.460938 99.929688 175.824219 C 99.632812 176.046875 99.378906 176.148438 99.023438 176.265625 L 99.023438 176.539062 L 98.753906 176.539062 L 98.753906 176.808594 C 98.472656 177.066406 98.472656 177.066406 98.101562 177.359375 L 97.734375 177.648438 C 97.398438 177.890625 97.398438 177.890625 96.996094 178.027344 C 96.765625 178.25 96.539062 178.472656 96.316406 178.703125 C 96.066406 178.917969 95.8125 179.132812 95.558594 179.34375 L 95.171875 179.664062 C 94.828125 179.917969 94.828125 179.917969 94.425781 180.054688 C 94.242188 180.277344 94.0625 180.503906 93.882812 180.730469 C 93.636719 180.953125 93.386719 181.167969 93.128906 181.375 L 92.742188 181.691406 C 92.394531 181.949219 92.394531 181.949219 91.988281 182.085938 L 91.71875 182.21875 L 91.71875 182.488281 C 91.449219 182.722656 91.171875 182.945312 90.890625 183.15625 L 90.363281 183.5625 L 90.09375 183.773438 C 89.839844 183.964844 89.589844 184.160156 89.34375 184.359375 C 88.535156 185.003906 87.71875 185.632812 86.882812 186.234375 L 86.636719 186.414062 C 86.441406 186.554688 86.238281 186.6875 86.035156 186.820312 L 85.765625 186.820312 L 85.765625 187.089844 C 85.496094 187.289062 85.222656 187.476562 84.9375 187.65625 L 84.679688 187.816406 C 83.4375 188.59375 82.222656 189.324219 80.730469 189.417969 C 80.109375 189.425781 79.550781 189.433594 78.953125 189.253906 C 78.371094 188.8125 77.828125 188.328125 77.542969 187.640625 C 77.285156 186.914062 77.1875 186.289062 77.195312 185.519531 L 77.1875 184.8125 L 77.1875 184.429688 C 77.171875 181.332031 77.039062 178.242188 76.878906 175.152344 L 76.863281 174.808594 C 76.617188 169.976562 76.273438 165.15625 75.917969 160.332031 C 75.738281 157.914062 75.566406 155.5 75.394531 153.082031 C 75.351562 152.464844 75.308594 151.851562 75.265625 151.234375 C 74.925781 146.476562 74.621094 141.722656 74.628906 136.949219 C 74.632812 136.5625 74.628906 136.175781 74.628906 135.789062 C 74.605469 132.457031 74.726562 129.261719 76.316406 126.238281 C 76.667969 125.636719 77.042969 125.105469 77.515625 124.589844 L 77.773438 124.304688 C 78.789062 123.296875 80.042969 122.667969 81.285156 121.984375 C 82.054688 121.558594 82.820312 121.121094 83.585938 120.683594 L 83.828125 120.546875 C 87.414062 118.5 90.949219 116.335938 94.289062 113.902344 L 94.601562 113.679688 C 96.117188 112.585938 97.585938 111.449219 99.023438 110.25 L 99.257812 110.058594 C 101.019531 108.597656 102.664062 107.03125 104.28125 105.414062 L 104.507812 105.191406 C 105.324219 104.378906 106.128906 103.558594 106.871094 102.675781 L 107.089844 102.417969 C 109.761719 99.269531 112.460938 95.707031 113.757812 91.738281 C 113.902344 91.3125 113.902344 91.3125 114.09375 90.878906 C 114.3125 90.367188 114.5 89.847656 114.679688 89.320312 C 115.09375 88.132812 115.527344 86.949219 115.960938 85.769531 C 116.085938 85.433594 116.210938 85.097656 116.335938 84.757812 C 116.6875 83.796875 117.042969 82.835938 117.429688 81.886719 C 117.683594 81.25 117.917969 80.605469 118.15625 79.964844 C 118.511719 79.011719 118.871094 78.0625 119.273438 77.125 C 119.472656 76.652344 119.660156 76.179688 119.847656 75.703125 C 120.230469 74.738281 120.617188 73.785156 121.054688 72.84375 C 121.460938 71.957031 121.820312 71.046875 122.179688 70.136719 C 122.46875 69.410156 122.765625 68.695312 123.101562 67.984375 C 123.40625 67.339844 123.667969 66.6875 123.914062 66.015625 C 124.269531 65.042969 124.6875 64.109375 125.132812 63.175781 C 125.390625 62.609375 125.636719 62.042969 125.882812 61.472656 C 126.425781 60.226562 126.980469 58.988281 127.566406 57.765625 L 127.714844 57.453125 C 128.859375 55.046875 130.105469 52.738281 132.03125 50.863281 L 132.335938 50.554688 C 133.609375 49.335938 135.195312 48.792969 136.871094 48.367188 C 138.476562 47.980469 140.074219 47.8125 141.722656 47.734375 "/></g></g><g clip-rule="nonzero" clip-path="url(#66b1b9a79a)"><g clip-rule="nonzero" clip-path="url(#f74bcafabf)"><path style=" stroke:none;fill-rule:nonzero;fill:#65b7ad;fill-opacity:1;" d="M 175.589844 84.414062 C 175.820312 84.4375 175.820312 84.4375 176.132812 84.546875 C 177.625 85.894531 178.546875 87.855469 179.167969 89.738281 C 179.289062 90.128906 179.402344 90.515625 179.515625 90.90625 L 179.644531 91.363281 C 179.957031 92.59375 180.089844 93.839844 180.191406 95.101562 L 180.21875 95.460938 C 181.136719 107.980469 177.726562 121.132812 174.980469 137.84375 L 174.757812 139.167969 C 174.082031 143.175781 173.472656 147.195312 172.863281 151.21875 C 172.648438 152.652344 172.429688 154.082031 172.207031 155.515625 C 172.160156 155.828125 172.109375 156.140625 172.0625 156.449219 C 171.925781 157.359375 171.78125 158.265625 171.636719 159.175781 C 169.226562 171.253906 169.226562 171.253906 170.492188 183.246094 C 171.046875 184.445312 171.820312 185.492188 172.894531 186.269531 C 173.703125 186.792969 174.425781 187.132812 175.398438 187.21875 C 175.964844 187.230469 176.519531 187.164062 177.078125 187.089844 C 177.136719 188.792969 176.890625 190.417969 176.132812 191.960938 C 175.703125 192.667969 175.117188 193.101562 174.402344 193.5 C 171.667969 194.863281 168.808594 195.910156 165.714844 195.746094 C 163.144531 195.582031 160.75 195.054688 158.554688 193.660156 L 158.273438 193.449219 L 158.273438 193.175781 L 158.03125 193.066406 C 157.234375 192.640625 156.722656 191.902344 156.238281 191.15625 C 154.84375 188.792969 154.230469 186 154.1875 183.273438 L 154.183594 182.917969 L 154.179688 182.539062 C 154.152344 179.230469 154.335938 176.027344 154.757812 172.75 L 154.796875 172.457031 C 155.230469 169.09375 155.734375 165.742188 156.269531 162.394531 C 156.332031 162.003906 156.394531 161.613281 156.457031 161.222656 C 156.984375 157.921875 157.527344 154.628906 158.113281 151.339844 C 158.820312 147.367188 159.46875 143.390625 160.117188 139.414062 L 160.28125 138.414062 C 160.625 136.316406 160.964844 134.214844 161.308594 132.117188 L 161.550781 130.617188 C 162.433594 125.183594 162.433594 125.183594 163.238281 119.738281 L 163.3125 119.210938 C 165.691406 107.183594 165.691406 107.183594 164.464844 95.320312 C 164.167969 94.664062 163.800781 94.085938 163.367188 93.511719 C 163.136719 93.195312 162.9375 92.867188 162.738281 92.53125 L 162.46875 92.125 C 162.984375 91.96875 163.484375 91.839844 164.015625 91.753906 C 164.757812 91.609375 165.4375 91.347656 166.136719 91.074219 C 166.632812 90.882812 167.121094 90.707031 167.636719 90.570312 C 169.859375 89.925781 171.589844 88.605469 173.230469 87.03125 C 174.832031 85.515625 174.832031 85.515625 175.640625 85.257812 L 175.859375 85.226562 Z M 175.589844 84.414062 "/></g></g><g clip-rule="nonzero" clip-path="url(#be7a33069e)"><g clip-rule="nonzero" clip-path="url(#088eca2283)"><path style=" stroke:none;fill-rule:nonzero;fill:#b8e1ef;fill-opacity:1;" d="M 112.820312 107.003906 C 113.101562 107.054688 113.101562 107.054688 113.363281 107.140625 L 113.5 107.277344 C 113.515625 107.460938 113.527344 107.648438 113.53125 107.835938 L 113.542969 108.199219 L 113.554688 108.601562 C 113.566406 108.886719 113.574219 109.167969 113.585938 109.453125 L 113.601562 109.90625 C 113.835938 116.820312 114.6875 123.34375 116.78125 129.960938 C 116.886719 130.292969 116.988281 130.621094 117.085938 130.949219 C 117.414062 132.023438 117.761719 133.0625 118.210938 134.09375 C 118.425781 134.609375 118.597656 135.136719 118.761719 135.671875 C 118.878906 136 119.007812 136.324219 119.15625 136.640625 C 120.453125 139.515625 121.855469 142.75 121.613281 145.964844 C 121.347656 147.277344 120.691406 148.421875 119.820312 149.429688 C 119.488281 149.773438 119.152344 150.113281 118.808594 150.445312 L 118.441406 150.804688 C 117.75 151.480469 117.050781 152.125 116.289062 152.722656 C 115.847656 153.066406 115.425781 153.429688 115.003906 153.792969 L 114.519531 154.210938 L 114.277344 154.417969 C 113.378906 155.191406 112.472656 155.957031 111.554688 156.703125 C 110.359375 157.675781 109.195312 158.691406 108.054688 159.730469 C 107.613281 160.128906 107.164062 160.507812 106.699219 160.878906 C 106.015625 161.433594 105.375 162.027344 104.730469 162.628906 C 104.140625 163.183594 103.53125 163.695312 102.898438 164.203125 C 102.382812 164.628906 101.890625 165.082031 101.394531 165.535156 C 100.789062 166.089844 100.171875 166.628906 99.542969 167.160156 C 98.585938 167.972656 97.644531 168.808594 96.726562 169.664062 C 96.367188 170 96.007812 170.328125 95.640625 170.652344 C 94.476562 171.699219 93.324219 172.753906 92.230469 173.878906 L 91.984375 174.128906 C 91.652344 174.46875 91.320312 174.808594 90.992188 175.152344 C 90.746094 175.410156 90.5 175.664062 90.25 175.914062 L 90.027344 176.152344 C 89.816406 176.367188 89.816406 176.367188 89.417969 176.671875 C 89.027344 176.652344 89.027344 176.652344 88.742188 176.539062 C 88.824219 176.050781 88.953125 175.65625 89.167969 175.21875 L 89.355469 174.832031 L 89.5625 174.414062 C 89.710938 174.113281 89.855469 173.808594 90.003906 173.507812 L 90.121094 173.261719 C 90.636719 172.207031 91.132812 171.140625 91.632812 170.078125 L 91.90625 169.5 C 92.621094 167.976562 93.335938 166.449219 94.019531 164.914062 L 94.15625 164.601562 C 94.433594 163.972656 94.707031 163.34375 94.972656 162.714844 C 95.285156 161.980469 95.617188 161.261719 95.957031 160.539062 C 96.246094 159.925781 96.519531 159.304688 96.792969 158.679688 C 97.128906 157.90625 97.476562 157.136719 97.835938 156.375 C 98.070312 155.875 98.300781 155.375 98.523438 154.871094 L 98.683594 154.503906 C 98.789062 154.265625 98.894531 154.03125 98.996094 153.792969 C 99.371094 152.949219 99.761719 152.128906 100.5 151.539062 C 100.882812 151.316406 101.28125 151.195312 101.703125 151.054688 C 102.710938 150.714844 103.402344 150.273438 104.128906 149.503906 C 104.699219 148.8125 105.066406 148.0625 105.246094 147.183594 C 105.359375 146.089844 105.417969 144.898438 105.027344 143.859375 C 104.925781 143.65625 104.816406 143.457031 104.707031 143.257812 L 104.527344 142.910156 C 104.011719 141.972656 103.398438 141.328125 102.492188 140.761719 C 101.542969 140.242188 100.613281 140.019531 99.53125 140.007812 C 98.371094 140.0625 97.476562 140.324219 96.476562 140.914062 C 95.527344 141.546875 94.933594 142.242188 94.425781 143.257812 C 93.914062 144.359375 93.679688 145.429688 93.78125 146.640625 C 93.894531 147.445312 94.101562 148.148438 94.449219 148.878906 C 94.597656 149.324219 94.582031 149.691406 94.558594 150.160156 C 94.429688 150.582031 94.429688 150.582031 94.242188 151.015625 L 94.03125 151.511719 L 93.796875 152.042969 C 93.71875 152.230469 93.640625 152.414062 93.558594 152.601562 C 93.351562 153.089844 93.140625 153.574219 92.929688 154.058594 C 92.804688 154.347656 92.679688 154.632812 92.554688 154.921875 C 92.117188 155.925781 91.675781 156.933594 91.234375 157.9375 C 90.894531 158.707031 90.558594 159.480469 90.222656 160.253906 L 90.0625 160.621094 C 89.636719 161.601562 89.210938 162.578125 88.789062 163.558594 L 88.226562 164.859375 L 88.113281 165.113281 C 87.882812 165.652344 87.648438 166.191406 87.414062 166.730469 C 86.839844 168.066406 86.253906 169.394531 85.628906 170.707031 C 85.46875 171.050781 85.316406 171.394531 85.160156 171.742188 L 84.800781 172.53125 L 84.636719 172.914062 L 84.472656 173.269531 L 84.328125 173.589844 L 84.144531 173.832031 C 83.785156 173.933594 83.785156 173.933594 83.464844 173.96875 C 83.171875 173.136719 83.160156 172.378906 83.167969 171.503906 L 83.171875 171.050781 C 83.171875 170.558594 83.175781 170.066406 83.179688 169.570312 C 83.179688 169.222656 83.179688 168.875 83.183594 168.527344 C 83.183594 167.808594 83.1875 167.085938 83.191406 166.367188 C 83.195312 165.390625 83.199219 164.414062 83.199219 163.4375 L 83.199219 162.53125 L 83.203125 162.078125 C 83.207031 158.941406 83.21875 155.808594 83.226562 152.671875 C 83.234375 150.882812 83.238281 149.09375 83.242188 147.304688 C 83.246094 145.722656 83.25 144.140625 83.257812 142.554688 C 83.261719 141.722656 83.261719 140.894531 83.261719 140.0625 C 83.265625 139.285156 83.265625 138.507812 83.269531 137.730469 C 83.273438 137.449219 83.273438 137.164062 83.273438 136.882812 C 83.269531 133.066406 83.269531 133.066406 84.074219 131.390625 C 84.964844 129.929688 86.078125 128.980469 87.523438 128.109375 L 87.886719 127.886719 C 88.125 127.742188 88.363281 127.597656 88.605469 127.453125 C 90.238281 126.472656 91.835938 125.445312 93.425781 124.398438 C 93.6875 124.226562 93.949219 124.054688 94.207031 123.882812 C 96.269531 122.523438 98.28125 121.089844 100.242188 119.585938 L 100.484375 119.398438 C 101.753906 118.425781 102.96875 117.402344 104.164062 116.339844 L 104.378906 116.148438 C 106.320312 114.414062 108.273438 112.597656 109.84375 110.523438 C 110.027344 110.289062 110.210938 110.054688 110.394531 109.820312 C 110.523438 109.660156 110.652344 109.496094 110.777344 109.335938 C 111.1875 108.8125 111.601562 108.289062 112.019531 107.773438 L 112.3125 107.414062 C 112.550781 107.140625 112.550781 107.140625 112.820312 107.003906 "/></g></g><g clip-rule="nonzero" clip-path="url(#2aec7fdefa)"><g clip-rule="nonzero" clip-path="url(#25dfe3c26b)"><path style=" stroke:none;fill-rule:nonzero;fill:#69b9c3;fill-opacity:1;" d="M 101.953125 140.386719 C 102.957031 140.914062 103.773438 141.515625 104.433594 142.449219 C 105.003906 143.425781 105.410156 144.367188 105.441406 145.507812 C 105.441406 146.597656 105.390625 147.539062 104.933594 148.550781 C 104.390625 149.480469 103.664062 150.285156 102.726562 150.824219 C 102.308594 151.015625 101.878906 151.148438 101.441406 151.292969 C 100.667969 151.554688 100.667969 151.554688 100.039062 152.050781 C 99.542969 152.757812 99.226562 153.566406 98.886719 154.351562 C 98.71875 154.746094 98.546875 155.140625 98.375 155.535156 C 98.257812 155.804688 98.140625 156.078125 98.023438 156.351562 C 97.78125 156.910156 97.542969 157.460938 97.265625 158 C 96.917969 158.6875 96.621094 159.394531 96.316406 160.101562 C 95.972656 160.90625 95.625 161.703125 95.230469 162.484375 C 95 162.941406 94.792969 163.410156 94.585938 163.878906 L 94.082031 165 C 92.792969 167.875 91.472656 170.730469 90.09375 173.5625 C 89.855469 174.058594 89.613281 174.554688 89.375 175.050781 L 89.222656 175.367188 C 88.949219 175.925781 88.949219 175.925781 88.878906 176.539062 C 89.253906 176.488281 89.503906 176.441406 89.808594 176.210938 L 90.046875 175.96875 L 90.324219 175.691406 L 90.617188 175.386719 L 90.925781 175.074219 C 91.25 174.746094 91.574219 174.417969 91.894531 174.085938 C 92.21875 173.757812 92.539062 173.429688 92.863281 173.105469 C 93.0625 172.902344 93.261719 172.699219 93.460938 172.492188 C 93.996094 171.949219 94.542969 171.429688 95.125 170.933594 C 95.550781 170.566406 95.953125 170.175781 96.359375 169.789062 C 97.050781 169.140625 97.765625 168.519531 98.507812 167.925781 C 98.96875 167.542969 99.402344 167.140625 99.835938 166.730469 C 100.503906 166.101562 101.195312 165.5 101.910156 164.929688 C 102.429688 164.503906 102.917969 164.050781 103.414062 163.597656 C 103.792969 163.25 104.179688 162.910156 104.566406 162.574219 C 104.878906 162.300781 105.183594 162.019531 105.492188 161.742188 C 105.957031 161.320312 106.433594 160.917969 106.921875 160.523438 C 107.464844 160.085938 107.980469 159.628906 108.492188 159.15625 C 109.117188 158.578125 109.757812 158.023438 110.421875 157.492188 C 110.683594 157.28125 110.941406 157.066406 111.199219 156.851562 L 111.597656 156.515625 L 111.953125 156.210938 C 112.265625 155.984375 112.445312 155.890625 112.820312 155.839844 L 113.363281 155.839844 L 113.632812 156.15625 C 113.878906 156.421875 114.039062 156.515625 114.386719 156.628906 C 114.820312 156.722656 115.253906 156.800781 115.6875 156.871094 C 118.390625 157.347656 118.390625 157.347656 119.195312 157.878906 L 119.449219 158.140625 L 119.449219 158.410156 L 119.796875 158.316406 L 120.246094 158.199219 L 120.691406 158.082031 L 121.074219 158.003906 L 121.34375 158.140625 L 121.34375 157.871094 L 121.886719 157.597656 L 122.019531 157.871094 L 121.757812 158.058594 L 121.421875 158.308594 L 121.082031 158.554688 L 120.804688 158.816406 L 120.746094 159.078125 C 120.667969 159.355469 120.667969 159.355469 120.460938 159.574219 L 120.199219 159.78125 L 119.914062 160.011719 L 119.609375 160.246094 L 119.3125 160.480469 C 119.046875 160.695312 118.773438 160.90625 118.503906 161.117188 L 118.21875 161.34375 L 117.960938 161.523438 L 117.691406 161.523438 L 117.691406 161.792969 C 117.410156 162.03125 117.125 162.261719 116.828125 162.484375 L 116.304688 162.890625 L 116.042969 163.089844 C 115.71875 163.34375 115.398438 163.597656 115.078125 163.855469 L 114.445312 164.363281 L 114.101562 164.640625 L 113.769531 164.902344 L 113.472656 165.140625 L 113.226562 165.308594 L 112.957031 165.308594 L 112.957031 165.582031 C 112.6875 165.8125 112.410156 166.035156 112.128906 166.25 L 111.609375 166.648438 L 111.335938 166.859375 C 110.898438 167.195312 110.464844 167.539062 110.03125 167.878906 C 109.746094 168.105469 109.457031 168.332031 109.167969 168.554688 L 108.863281 168.800781 L 108.628906 168.960938 L 108.359375 168.960938 L 108.359375 169.234375 C 108.109375 169.441406 107.855469 169.640625 107.597656 169.832031 C 107.433594 169.957031 107.269531 170.078125 107.109375 170.203125 L 106.851562 170.394531 C 106.453125 170.695312 106.0625 171.003906 105.667969 171.3125 L 105.433594 171.5 C 104.847656 171.960938 104.265625 172.425781 103.683594 172.894531 C 102.902344 173.519531 102.113281 174.136719 101.316406 174.742188 C 100.851562 175.101562 100.390625 175.460938 99.929688 175.824219 C 99.632812 176.046875 99.378906 176.148438 99.023438 176.265625 L 99.023438 176.539062 L 98.753906 176.539062 L 98.753906 176.808594 C 98.472656 177.066406 98.472656 177.066406 98.101562 177.359375 L 97.734375 177.648438 C 97.398438 177.890625 97.398438 177.890625 96.996094 178.027344 C 96.765625 178.25 96.539062 178.472656 96.316406 178.703125 C 96.066406 178.917969 95.8125 179.132812 95.558594 179.34375 L 95.171875 179.664062 C 94.828125 179.917969 94.828125 179.917969 94.425781 180.054688 C 94.242188 180.277344 94.0625 180.503906 93.882812 180.730469 C 93.636719 180.953125 93.386719 181.167969 93.128906 181.375 L 92.742188 181.691406 C 92.394531 181.949219 92.394531 181.949219 91.988281 182.085938 L 91.71875 182.21875 L 91.71875 182.488281 C 91.449219 182.722656 91.171875 182.945312 90.890625 183.15625 L 90.363281 183.5625 L 90.09375 183.773438 C 89.839844 183.964844 89.589844 184.160156 89.34375 184.359375 C 88.535156 185.003906 87.71875 185.632812 86.882812 186.234375 L 86.636719 186.414062 C 86.441406 186.554688 86.238281 186.6875 86.035156 186.820312 L 85.765625 186.820312 L 85.765625 187.089844 C 85.496094 187.289062 85.222656 187.476562 84.9375 187.65625 L 84.679688 187.816406 C 83.4375 188.59375 82.222656 189.324219 80.730469 189.417969 C 80.109375 189.425781 79.550781 189.433594 78.953125 189.253906 C 78.371094 188.8125 77.828125 188.328125 77.542969 187.640625 C 77.285156 186.914062 77.1875 186.289062 77.195312 185.519531 L 77.1875 184.8125 L 77.1875 184.429688 C 77.171875 181.332031 77.035156 178.242188 76.878906 175.152344 L 76.863281 174.8125 C 76.648438 170.601562 76.363281 166.394531 76.042969 162.1875 C 76.007812 161.71875 75.972656 161.253906 75.9375 160.789062 C 75.914062 160.472656 75.890625 160.160156 75.867188 159.84375 C 75.792969 158.875 75.734375 157.90625 75.714844 156.9375 L 75.703125 156.40625 L 75.753906 155.976562 C 76.007812 155.703125 76.207031 155.601562 76.546875 155.460938 C 76.863281 155.316406 76.863281 155.316406 77.042969 154.988281 L 77.226562 154.632812 C 77.515625 154.105469 77.773438 153.800781 78.285156 153.480469 C 79.097656 153.050781 79.933594 152.734375 80.859375 152.726562 C 81.464844 152.773438 81.964844 152.890625 82.519531 153.132812 L 82.789062 153 C 82.851562 152.742188 82.851562 152.742188 82.875 152.449219 L 82.925781 151.917969 L 83.0625 151.917969 L 83.0625 163.820312 L 83.332031 163.820312 L 83.332031 164.164062 C 83.328125 165.234375 83.324219 166.308594 83.324219 167.378906 C 83.324219 167.929688 83.324219 168.480469 83.320312 169.027344 C 83.320312 169.5625 83.320312 170.09375 83.316406 170.625 C 83.316406 170.828125 83.316406 171.027344 83.316406 171.230469 C 83.316406 171.515625 83.316406 171.800781 83.316406 172.082031 L 83.316406 172.574219 C 83.332031 173.003906 83.386719 173.410156 83.464844 173.832031 L 84.007812 173.832031 C 84.460938 172.886719 84.910156 171.9375 85.359375 170.992188 C 85.402344 170.902344 85.445312 170.808594 85.492188 170.714844 C 86.683594 168.207031 87.792969 165.65625 88.867188 163.09375 C 89.285156 162.105469 89.710938 161.117188 90.144531 160.136719 C 90.878906 158.476562 91.605469 156.816406 92.320312 155.152344 C 92.519531 154.695312 92.714844 154.234375 92.914062 153.777344 C 93.125 153.300781 93.332031 152.820312 93.535156 152.339844 C 93.613281 152.15625 93.691406 151.972656 93.773438 151.789062 C 93.882812 151.535156 93.992188 151.28125 94.101562 151.027344 L 94.289062 150.585938 C 94.441406 150.101562 94.457031 149.714844 94.425781 149.210938 C 94.285156 148.753906 94.285156 148.753906 94.09375 148.296875 C 93.679688 147.179688 93.539062 146.226562 93.679688 145.042969 C 93.90625 143.875 94.476562 142.722656 95.203125 141.78125 C 96.003906 140.929688 97.101562 140.34375 98.210938 140.011719 C 99.449219 139.722656 100.800781 139.867188 101.953125 140.386719 "/></g></g><g clip-rule="nonzero" clip-path="url(#a762be27ae)"><g clip-rule="nonzero" clip-path="url(#01cd057769)"><path style=" stroke:none;fill-rule:nonzero;fill:#acdcf0;fill-opacity:1;" d="M 112.820312 107.003906 C 113.101562 107.054688 113.101562 107.054688 113.363281 107.140625 L 113.5 107.277344 C 113.515625 107.460938 113.527344 107.648438 113.53125 107.835938 L 113.542969 108.199219 L 113.554688 108.601562 C 113.566406 108.886719 113.574219 109.167969 113.585938 109.453125 L 113.601562 109.90625 C 113.835938 116.820312 114.6875 123.34375 116.78125 129.960938 C 116.886719 130.292969 116.988281 130.621094 117.085938 130.949219 C 117.414062 132.023438 117.761719 133.0625 118.210938 134.09375 C 118.378906 134.492188 118.515625 134.890625 118.648438 135.304688 C 118.828125 135.863281 119.046875 136.414062 119.296875 136.949219 C 119.652344 137.773438 119.953125 138.628906 120.261719 139.472656 L 119.992188 139.472656 L 120.125 140.148438 C 116.835938 141.011719 113.125 140.5 109.84375 139.742188 C 109.488281 139.640625 109.132812 139.53125 108.78125 139.421875 C 106.101562 138.597656 103.371094 138.296875 100.585938 138.140625 C 99.195312 138.054688 97.925781 137.820312 96.589844 137.441406 C 93.226562 136.566406 89.792969 136.0625 86.3125 136.089844 C 85.8125 136.09375 85.332031 136.054688 84.835938 135.980469 L 84.390625 135.917969 C 84.007812 135.820312 84.007812 135.820312 83.753906 135.605469 L 83.601562 135.414062 L 83.332031 135.546875 C 83.257812 134.15625 83.445312 132.648438 84.074219 131.390625 C 84.964844 129.929688 86.078125 128.980469 87.523438 128.109375 L 87.886719 127.886719 C 88.125 127.742188 88.363281 127.597656 88.605469 127.453125 C 90.238281 126.472656 91.835938 125.445312 93.425781 124.398438 C 93.6875 124.226562 93.949219 124.054688 94.207031 123.882812 C 96.269531 122.523438 98.28125 121.089844 100.242188 119.585938 L 100.484375 119.398438 C 101.753906 118.425781 102.96875 117.402344 104.164062 116.339844 L 104.378906 116.148438 C 106.320312 114.414062 108.273438 112.597656 109.84375 110.523438 C 110.027344 110.289062 110.210938 110.054688 110.394531 109.820312 C 110.523438 109.660156 110.652344 109.496094 110.777344 109.335938 C 111.1875 108.8125 111.601562 108.289062 112.019531 107.773438 L 112.3125 107.414062 C 112.550781 107.140625 112.550781 107.140625 112.820312 107.003906 "/></g></g><g clip-rule="nonzero" clip-path="url(#e4a9756eff)"><g clip-rule="nonzero" clip-path="url(#552efbd538)"><path style=" stroke:none;fill-rule:nonzero;fill:#67bca9;fill-opacity:1;" d="M 171.261719 185.195312 C 171.828125 185.460938 172.3125 185.761719 172.808594 186.140625 C 173.554688 186.691406 174.164062 187.054688 175.09375 187.191406 C 175.761719 187.25 176.414062 187.179688 177.078125 187.089844 C 177.136719 188.792969 176.890625 190.417969 176.132812 191.960938 C 175.703125 192.667969 175.117188 193.101562 174.402344 193.5 C 171.667969 194.863281 168.808594 195.910156 165.714844 195.746094 C 164.136719 195.644531 162.640625 195.363281 161.117188 194.933594 L 161.117188 194.664062 L 161.386719 194.53125 L 160.574219 194.257812 L 160.574219 193.988281 L 160.269531 193.953125 C 159.898438 193.851562 159.898438 193.851562 159.585938 193.609375 L 159.355469 193.3125 L 159.355469 192.769531 C 159.433594 192.742188 159.511719 192.710938 159.589844 192.679688 C 160.355469 192.367188 160.925781 191.992188 161.523438 191.417969 L 161.789062 191.542969 C 162.050781 191.664062 162.316406 191.78125 162.578125 191.898438 C 162.855469 192.023438 163.132812 192.152344 163.410156 192.285156 C 164.40625 192.742188 165.296875 192.886719 166.390625 192.90625 L 166.5 192.53125 C 166.652344 192.117188 166.769531 191.921875 167.066406 191.613281 C 168.125 190.453125 169.332031 189.132812 169.71875 187.574219 C 169.761719 187.371094 169.800781 187.164062 169.839844 186.960938 C 169.953125 186.515625 170.144531 186.210938 170.449219 185.871094 C 170.820312 185.820312 170.820312 185.820312 171.125 185.871094 Z M 171.261719 185.195312 "/></g></g><g clip-rule="nonzero" clip-path="url(#af57fe8b9b)"><g clip-rule="nonzero" clip-path="url(#652422eeae)"><path style=" stroke:none;fill-rule:nonzero;fill:#46b1ce;fill-opacity:1;" d="M 89.554688 183.707031 L 89.824219 183.707031 L 89.6875 184.113281 C 89.425781 184.304688 89.152344 184.484375 88.878906 184.65625 L 88.878906 184.25 C 89.199219 183.953125 89.199219 183.953125 89.554688 183.707031 "/></g></g><g clip-rule="nonzero" clip-path="url(#57f023601c)"><g clip-rule="nonzero" clip-path="url(#3aec262f71)"><path style=" stroke:none;fill-rule:nonzero;fill:#fefefe;fill-opacity:1;" d="M 75.460938 197.730469 L 167.617188 197.730469 L 167.617188 243.433594 L 75.460938 243.433594 Z M 75.460938 197.730469 "/></g></g><g clip-rule="nonzero" clip-path="url(#90f1cb47da)"><g clip-rule="nonzero" clip-path="url(#a8d86723cc)"><path style=" stroke:none;fill-rule:nonzero;fill:#5aa2b0;fill-opacity:1;" d="M 81.332031 207.839844 L 85.675781 207.839844 L 85.675781 217.289062 L 86.113281 217.289062 L 86.257812 216.921875 C 86.636719 216.246094 87.125 215.792969 87.675781 215.253906 C 88.527344 214.414062 89.335938 213.550781 90.109375 212.636719 C 90.582031 212.09375 91.089844 211.59375 91.597656 211.089844 C 92.132812 210.539062 92.625 209.960938 93.117188 209.375 L 93.503906 208.9375 L 93.910156 208.339844 C 94.589844 207.839844 94.589844 207.839844 95.207031 207.75 C 95.96875 207.730469 96.722656 207.742188 97.480469 207.769531 L 98.285156 207.785156 C 98.9375 207.796875 99.589844 207.816406 100.238281 207.839844 C 99.957031 208.472656 99.65625 208.921875 99.167969 209.410156 C 98.976562 209.601562 98.976562 209.601562 98.777344 209.800781 L 98.359375 210.214844 L 97.925781 210.648438 C 97.472656 211.105469 97.015625 211.558594 96.558594 212.015625 C 96.101562 212.46875 95.648438 212.925781 95.191406 213.378906 C 94.910156 213.664062 94.625 213.945312 94.339844 214.226562 C 93.984375 214.585938 93.632812 214.945312 93.285156 215.308594 C 93.136719 215.464844 92.992188 215.617188 92.839844 215.773438 L 92.632812 216.1875 C 92.835938 216.980469 93.25 217.628906 93.683594 218.3125 L 94.054688 218.902344 L 94.453125 219.527344 L 94.863281 220.175781 C 95.929688 221.851562 97.019531 223.507812 98.113281 225.164062 C 98.703125 226.050781 99.285156 226.941406 99.859375 227.835938 L 100.113281 228.222656 C 100.304688 228.527344 100.492188 228.839844 100.675781 229.152344 L 100.675781 229.59375 C 99.796875 229.648438 98.917969 229.683594 98.039062 229.714844 L 97.289062 229.765625 C 96.5625 229.785156 95.945312 229.769531 95.242188 229.59375 C 94.597656 229.042969 94.300781 228.375 93.9375 227.613281 C 93.671875 227.152344 93.402344 226.691406 93.132812 226.234375 C 92.851562 225.738281 92.574219 225.242188 92.292969 224.746094 C 91.195312 222.789062 91.195312 222.789062 90.03125 220.871094 L 89.589844 220.144531 L 89.589844 219.703125 C 89.226562 219.917969 88.863281 220.140625 88.503906 220.363281 L 87.835938 220.773438 C 86.984375 221.398438 86.332031 222.019531 85.894531 223 C 85.5 225.164062 85.605469 227.402344 85.675781 229.59375 L 81.332031 229.59375 Z M 112.246094 213.695312 C 113.65625 214.164062 114.832031 214.914062 115.890625 215.96875 C 116.789062 217.039062 117.394531 218.1875 117.742188 219.546875 C 118.082031 221.523438 117.894531 223.316406 117.25 225.210938 C 116.851562 226.148438 116.363281 226.875 115.671875 227.613281 L 115.347656 227.976562 C 114.230469 229.085938 112.824219 229.636719 111.324219 230.03125 C 109.546875 230.261719 107.949219 230.070312 106.273438 229.429688 C 105.058594 228.867188 104.070312 228.175781 103.105469 227.242188 C 102.15625 225.789062 101.617188 224.082031 101.5 222.34375 C 101.476562 220.773438 101.53125 219.382812 102.195312 217.945312 C 103.101562 216.328125 104.144531 215.25 105.714844 214.285156 C 107.730469 213.316406 110.074219 213.253906 112.246094 213.695312 M 157.671875 213.664062 C 158.585938 214.019531 159.316406 214.625 160.011719 215.308594 C 160.652344 216.386719 160.867188 217.296875 160.90625 218.542969 C 160.90625 218.863281 160.90625 219.183594 160.90625 219.503906 L 160.90625 220.039062 C 160.90625 220.617188 160.902344 221.195312 160.902344 221.777344 L 160.898438 222.984375 C 160.898438 224.039062 160.898438 225.097656 160.894531 226.15625 C 160.894531 227.234375 160.890625 228.3125 160.890625 229.394531 C 160.886719 231.511719 160.882812 233.628906 160.878906 235.746094 L 156.75 235.746094 C 156.496094 234.972656 156.5 234.273438 156.496094 233.472656 L 156.492188 232.976562 C 156.488281 232.621094 156.484375 232.265625 156.484375 231.910156 C 156.480469 231.347656 156.472656 230.785156 156.46875 230.222656 C 156.453125 228.621094 156.441406 227.023438 156.429688 225.425781 C 156.421875 224.445312 156.414062 223.46875 156.402344 222.492188 C 156.398438 222.117188 156.398438 221.746094 156.394531 221.371094 C 156.394531 220.851562 156.386719 220.328125 156.382812 219.808594 L 156.382812 219.34375 C 156.371094 218.738281 156.335938 218.222656 156.136719 217.652344 C 155.867188 217.21875 155.867188 217.21875 155.230469 216.847656 C 154.421875 216.726562 153.648438 216.734375 152.839844 216.847656 C 152.226562 217.144531 151.996094 217.410156 151.535156 217.945312 C 150.433594 220.226562 150.824219 223.535156 150.761719 226.050781 L 150.730469 227.085938 C 150.707031 227.921875 150.6875 228.757812 150.664062 229.59375 C 150.015625 229.597656 149.371094 229.601562 148.722656 229.605469 L 148.160156 229.613281 L 147.628906 229.613281 L 147.136719 229.617188 L 146.753906 229.59375 L 146.535156 229.371094 C 146.515625 228.894531 146.507812 228.414062 146.511719 227.933594 L 146.511719 227.480469 C 146.511719 226.984375 146.511719 226.484375 146.515625 225.984375 L 146.515625 224.953125 C 146.515625 224.042969 146.515625 223.136719 146.519531 222.226562 C 146.523438 221.300781 146.523438 220.375 146.523438 219.449219 C 146.527344 217.628906 146.53125 215.808594 146.535156 213.992188 L 150.449219 213.992188 L 150.449219 215.96875 L 150.757812 215.664062 C 152.796875 213.75 154.863281 213.019531 157.671875 213.664062 M 127.84375 213.992188 L 131.972656 213.992188 C 132.679688 215.546875 133.304688 217.132812 133.90625 218.730469 C 134.066406 219.15625 134.226562 219.578125 134.386719 220 C 134.925781 221.425781 135.394531 222.8125 135.667969 224.320312 L 136.101562 224.320312 L 136.167969 223.667969 C 136.308594 222.683594 136.636719 221.800781 136.992188 220.875 L 137.191406 220.339844 C 137.332031 219.96875 137.472656 219.597656 137.613281 219.226562 C 137.828125 218.660156 138.039062 218.089844 138.253906 217.523438 L 138.660156 216.4375 L 138.855469 215.925781 C 139.121094 215.226562 139.382812 214.617188 139.796875 213.992188 C 140.226562 213.917969 140.226562 213.917969 140.742188 213.925781 L 141.304688 213.933594 C 141.496094 213.9375 141.691406 213.945312 141.890625 213.949219 L 142.480469 213.960938 C 142.960938 213.96875 143.445312 213.976562 143.925781 213.992188 C 143.421875 215.59375 142.820312 217.140625 142.1875 218.695312 L 141.875 219.472656 C 141.601562 220.148438 141.324219 220.824219 141.050781 221.503906 C 140.664062 222.453125 140.28125 223.40625 139.894531 224.359375 C 139.6875 224.867188 139.484375 225.371094 139.277344 225.875 C 139.1875 226.109375 139.09375 226.339844 138.996094 226.578125 L 138.75 227.1875 C 138.433594 227.984375 138.140625 228.789062 137.839844 229.59375 L 133.929688 229.59375 L 133.261719 227.941406 L 132.824219 226.867188 L 131.878906 224.535156 C 131.140625 222.707031 130.394531 220.878906 129.640625 219.058594 L 129.273438 218.171875 C 129.046875 217.628906 128.820312 217.082031 128.59375 216.539062 L 128.292969 215.808594 L 128.027344 215.175781 C 127.84375 214.652344 127.84375 214.652344 127.84375 213.992188 "/></g></g><g clip-rule="nonzero" clip-path="url(#fd7c5a0626)"><g clip-rule="nonzero" clip-path="url(#0c71363eaf)"><path style=" stroke:none;fill-rule:nonzero;fill:#fefefe;fill-opacity:1;" d="M 110.261719 216.539062 C 110.949219 216.636719 111.308594 216.808594 111.867188 217.21875 C 112.484375 217.761719 112.941406 218.28125 113.28125 219.046875 C 113.71875 220.402344 113.625 222.027344 113.5 223.441406 C 113.28125 224.425781 112.972656 225.246094 112.304688 226.007812 C 111.785156 226.46875 111.328125 226.734375 110.671875 226.957031 C 109.722656 227.050781 108.914062 227.023438 108.011719 226.707031 C 107.285156 226.207031 106.832031 225.703125 106.324219 224.976562 C 105.769531 223.710938 105.617188 222.386719 105.726562 221.015625 C 105.867188 220 106.035156 219.1875 106.503906 218.277344 C 107.667969 216.929688 108.523438 216.523438 110.261719 216.539062 "/></g></g><g clip-rule="nonzero" clip-path="url(#076a84fba7)"><g clip-rule="nonzero" clip-path="url(#638262f24b)"><path style=" stroke:none;fill-rule:nonzero;fill:#5aa2b0;fill-opacity:1;" d="M 121.105469 213.992188 L 125.234375 213.992188 L 125.234375 229.59375 L 121.324219 229.59375 L 121.105469 229.371094 C 121.085938 228.894531 121.078125 228.414062 121.082031 227.933594 L 121.082031 227.480469 C 121.082031 226.984375 121.082031 226.484375 121.085938 225.984375 L 121.085938 224.953125 C 121.085938 224.042969 121.089844 223.136719 121.089844 222.226562 C 121.09375 221.300781 121.09375 220.375 121.09375 219.449219 C 121.097656 217.628906 121.101562 215.808594 121.105469 213.992188 M 153.707031 207.398438 L 158.273438 207.398438 L 158.273438 207.839844 C 157.945312 208.15625 157.945312 208.15625 157.496094 208.527344 C 156.699219 209.207031 156.019531 209.933594 155.347656 210.738281 L 155.011719 211.136719 L 154.726562 211.511719 L 154.359375 211.792969 C 153.726562 211.859375 153.726562 211.859375 153.015625 211.835938 L 152.300781 211.816406 L 151.75 211.792969 C 152.21875 210.191406 152.890625 208.851562 153.707031 207.398438 "/></g></g></g></svg>