<svg xmlns="http://www.w3.org/2000/svg" xmlns:xlink="http://www.w3.org/1999/xlink" width="451" zoomAndPan="magnify" viewBox="0 0 338.25 338.249992" height="451" preserveAspectRatio="xMidYMid meet" version="1.0"><defs><clipPath id="1b4f428a69"><path d="M 0 0 L 337.417969 0 L 337.417969 337.417969 L 0 337.417969 Z M 0 0 " clip-rule="nonzero"/></clipPath><clipPath id="6cabdf9855"><path d="M 168.710938 0 C 75.535156 0 0 75.535156 0 168.710938 C 0 261.886719 75.535156 337.417969 168.710938 337.417969 C 261.886719 337.417969 337.417969 261.886719 337.417969 168.710938 C 337.417969 75.535156 261.886719 0 168.710938 0 Z M 168.710938 0 " clip-rule="nonzero"/></clipPath><clipPath id="930d2fb61d"><path d="M 18.753906 18.753906 L 318.839844 18.753906 L 318.839844 318.839844 L 18.753906 318.839844 Z M 18.753906 18.753906 " clip-rule="nonzero"/></clipPath></defs><g clip-path="url(#1b4f428a69)"><g clip-path="url(#6cabdf9855)"><path fill="#008ffe" d="M 0 0 L 337.417969 0 L 337.417969 337.417969 L 0 337.417969 Z M 0 0 " fill-opacity="1" fill-rule="nonzero"/></g></g><g clip-path="url(#930d2fb61d)"><path fill="#000000" d="M 168.785156 18.78125 C 251.644531 18.78125 318.8125 85.949219 318.8125 168.808594 C 318.8125 251.664062 251.644531 318.835938 168.785156 318.835938 C 85.929688 318.835938 18.761719 251.664062 18.761719 168.808594 C 18.761719 85.949219 85.929688 18.78125 168.785156 18.78125 " fill-opacity="1" fill-rule="evenodd"/></g><path fill="#ffcc00" d="M 168.785156 21.226562 C 250.292969 21.226562 316.367188 87.300781 316.367188 168.808594 C 316.367188 250.316406 250.292969 316.390625 168.785156 316.390625 C 87.277344 316.390625 21.203125 250.316406 21.203125 168.808594 C 21.203125 87.300781 87.277344 21.226562 168.785156 21.226562 " fill-opacity="1" fill-rule="evenodd"/><path fill="#000000" d="M 168.785156 49.925781 C 234.445312 49.925781 287.667969 103.152344 287.667969 168.808594 C 287.667969 234.464844 234.445312 287.691406 168.785156 287.691406 C 103.128906 287.691406 49.902344 234.464844 49.902344 168.808594 C 49.902344 103.152344 103.128906 49.925781 168.785156 49.925781 " fill-opacity="1" fill-rule="evenodd"/><path fill="#000000" d="M 46.632812 239.410156 C 49.441406 238.6875 53.167969 237.140625 56.660156 236.207031 C 61.167969 235.003906 65.296875 234.816406 68.839844 234.886719 C 72.382812 234.957031 75.335938 235.28125 77.589844 233.878906 C 79.839844 232.476562 81.386719 229.34375 83.640625 225.84375 C 85.902344 222.339844 88.867188 218.472656 103.414062 208.804688 C 117.960938 199.136719 144.089844 183.671875 157.152344 175.9375 C 164.230469 171.75 167.472656 169.832031 168.785156 168.882812 C 170.097656 169.832031 173.339844 171.75 180.417969 175.9375 C 193.484375 183.671875 219.609375 199.132812 234.15625 208.804688 C 248.703125 218.472656 251.667969 222.339844 253.925781 225.84375 C 256.183594 229.34375 257.730469 232.476562 259.980469 233.878906 C 262.234375 235.28125 265.1875 234.957031 268.730469 234.886719 C 272.273438 234.816406 276.402344 235.003906 280.910156 236.207031 C 284.402344 237.140625 288.128906 238.6875 290.941406 239.410156 L 290.941406 239.40625 C 288.910156 237.332031 285.710938 234.882812 283.152344 232.320312 C 279.855469 229.023438 277.628906 225.539062 275.917969 222.4375 C 274.207031 219.335938 273.011719 216.609375 270.671875 215.363281 C 268.328125 214.113281 264.84375 214.339844 260.683594 214.136719 C 256.523438 213.933594 251.6875 213.296875 236.042969 205.535156 C 220.398438 197.769531 193.941406 182.875 180.710938 175.425781 C 173.546875 171.394531 170.261719 169.546875 168.785156 168.882812 C 168.949219 167.269531 168.988281 163.503906 169.078125 155.28125 C 169.242188 140.101562 169.574219 109.742188 170.671875 92.308594 C 171.769531 74.878906 173.640625 70.371094 175.542969 66.667969 C 177.449219 62.964844 179.386719 60.058594 179.476562 57.40625 C 179.566406 54.753906 177.804688 52.355469 175.976562 49.324219 C 174.140625 46.292969 172.238281 42.625 171.027344 38.121094 C 170.089844 34.625 169.566406 30.625 168.785156 27.832031 C 168.003906 30.625 167.480469 34.625 166.539062 38.121094 C 165.332031 42.625 163.429688 46.292969 161.597656 49.324219 C 159.761719 52.355469 158.003906 54.753906 158.09375 57.40625 C 158.183594 60.058594 160.121094 62.964844 162.027344 66.667969 C 163.933594 70.371094 165.800781 74.878906 166.898438 92.308594 C 167.996094 109.742188 168.328125 140.101562 168.492188 155.28125 C 168.582031 163.503906 168.621094 167.269531 168.785156 168.882812 C 167.308594 169.546875 164.023438 171.394531 156.859375 175.425781 C 143.628906 182.875 117.171875 197.769531 101.527344 205.535156 C 85.882812 213.296875 81.046875 213.933594 76.886719 214.140625 C 72.726562 214.339844 69.242188 214.113281 66.898438 215.363281 C 64.558594 216.609375 63.363281 219.335938 61.652344 222.4375 C 59.941406 225.539062 57.714844 229.023438 54.421875 232.320312 C 51.863281 234.882812 48.664062 237.332031 46.632812 239.410156 Z M 290.941406 239.410156 L 290.941406 239.40625 Z M 168.785156 168.882812 Z M 168.785156 27.832031 Z M 168.785156 168.882812 Z M 46.632812 239.410156 Z M 46.632812 239.410156 " fill-opacity="1" fill-rule="evenodd"/><path fill="#008ffe" d="M 168.785156 52.371094 C 233.09375 52.371094 285.222656 104.5 285.222656 168.808594 C 285.222656 233.117188 233.09375 285.25 168.785156 285.25 C 104.476562 285.25 52.347656 233.117188 52.347656 168.808594 C 52.347656 104.5 104.476562 52.371094 168.785156 52.371094 " fill-opacity="1" fill-rule="evenodd"/><path fill="#000000" d="M 271.261719 133.472656 C 271.554688 133.554688 271.832031 133.6875 272.082031 133.878906 C 272.488281 134.179688 272.785156 134.597656 272.9375 135.074219 C 273.101562 135.558594 273.105469 136.078125 272.949219 136.570312 C 272.859375 136.863281 272.714844 137.132812 272.53125 137.367188 L 272.457031 137.476562 C 264.648438 149.117188 266.941406 158.441406 272.273438 170.554688 C 273.566406 173.5 275.429688 176.144531 276.675781 179.15625 C 281.367188 190.507812 271.273438 200.398438 260.167969 195.183594 C 257.664062 194.007812 255.257812 192.484375 252.863281 191.09375 C 250.585938 189.773438 247.425781 187.953125 244.824219 187.496094 C 241.5625 186.921875 238.886719 188.378906 237.429688 191.226562 C 236.933594 194.386719 238.242188 197.140625 241.222656 198.59375 C 243.59375 199.75 247.21875 200.136719 249.835938 200.40625 C 252.589844 200.6875 255.433594 200.871094 258.148438 201.390625 C 270.199219 203.699219 272.554688 217.636719 262.085938 224.058594 C 259.304688 225.761719 256.246094 226.8125 253.464844 228.429688 C 242.03125 235.097656 234.707031 241.296875 234.171875 255.304688 L 234.167969 255.433594 C 234.179688 255.734375 234.136719 256.035156 234.035156 256.328125 C 233.875 256.8125 233.570312 257.226562 233.160156 257.519531 C 232.75 257.824219 232.253906 257.988281 231.742188 257.988281 C 231.4375 257.996094 231.140625 257.945312 230.855469 257.839844 L 230.730469 257.800781 C 217.246094 253.972656 209.085938 259.035156 199.214844 267.851562 C 196.8125 269.988281 194.867188 272.578125 192.390625 274.695312 C 188.304688 278.179688 182.703125 279.480469 177.863281 276.722656 C 173.285156 274.121094 171.410156 269.011719 172.046875 263.945312 C 172.394531 261.199219 173.101562 258.441406 173.679688 255.738281 C 174.234375 253.164062 174.988281 249.59375 174.621094 246.980469 C 174.15625 243.695312 171.945312 241.605469 168.785156 241.101562 C 165.625 241.605469 163.414062 243.695312 162.953125 246.980469 C 162.585938 249.59375 163.339844 253.164062 163.890625 255.734375 C 164.472656 258.441406 165.179688 261.199219 165.523438 263.945312 C 166.160156 269.011719 164.285156 274.121094 159.710938 276.722656 C 154.867188 279.480469 149.265625 278.179688 145.179688 274.695312 C 142.703125 272.578125 140.757812 269.988281 138.359375 267.851562 C 128.488281 259.035156 120.328125 253.972656 106.84375 257.800781 L 106.71875 257.839844 C 106.429688 257.945312 106.125 258 105.808594 257.988281 C 105.3125 257.980469 104.832031 257.824219 104.429688 257.53125 C 104.003906 257.234375 103.6875 256.808594 103.527344 256.308594 C 103.433594 256.023438 103.390625 255.726562 103.40625 255.433594 L 103.398438 255.300781 C 102.875 241.292969 95.539062 235.097656 84.105469 228.429688 C 81.324219 226.8125 78.265625 225.765625 75.484375 224.058594 C 65.019531 217.636719 67.371094 203.699219 79.421875 201.390625 C 82.136719 200.871094 84.980469 200.6875 87.734375 200.40625 C 90.351562 200.140625 93.976562 199.75 96.351562 198.59375 C 99.328125 197.140625 100.636719 194.386719 100.140625 191.226562 C 98.6875 188.378906 96.011719 186.921875 92.746094 187.496094 C 90.144531 187.953125 86.984375 189.773438 84.707031 191.09375 C 82.3125 192.484375 79.90625 194.007812 77.40625 195.183594 C 66.296875 200.398438 56.203125 190.507812 60.894531 179.15625 C 62.144531 176.144531 64.003906 173.5 65.300781 170.554688 C 70.628906 158.441406 72.921875 149.117188 65.113281 137.476562 L 65.042969 137.367188 C 64.855469 137.128906 64.710938 136.855469 64.621094 136.558594 C 64.46875 136.078125 64.472656 135.566406 64.628906 135.089844 C 64.785156 134.601562 65.085938 134.175781 65.5 133.871094 C 65.742188 133.6875 66.019531 133.554688 66.308594 133.472656 L 66.429688 133.429688 C 79.585938 128.597656 83.214844 119.710938 86.023438 106.773438 C 86.703125 103.632812 86.753906 100.398438 87.515625 97.226562 C 88.773438 92.007812 92.539062 87.664062 98.078125 87.046875 C 103.308594 86.460938 107.832031 89.492188 110.292969 93.964844 C 111.628906 96.386719 112.675781 99.035156 113.796875 101.570312 C 114.863281 103.976562 116.351562 107.304688 118.1875 109.203125 C 120.488281 111.585938 123.507812 111.980469 126.359375 110.53125 C 128.617188 108.269531 129.179688 105.273438 127.625 102.34375 C 126.382812 100.011719 123.679688 97.566406 121.71875 95.8125 C 119.660156 93.964844 117.464844 92.148438 115.574219 90.132812 C 112.101562 86.429688 110.605469 81.136719 112.761719 76.375 C 115.0625 71.300781 120.359375 69.058594 125.714844 69.476562 C 128.960938 69.730469 132.054688 70.683594 135.253906 71.007812 C 148.421875 72.332031 158 71.632812 166.660156 60.609375 L 166.738281 60.507812 C 166.90625 60.253906 167.121094 60.03125 167.378906 59.855469 C 167.792969 59.558594 168.28125 59.402344 168.785156 59.410156 C 169.289062 59.402344 169.777344 59.558594 170.191406 59.855469 C 170.449219 60.03125 170.664062 60.253906 170.835938 60.507812 L 170.910156 60.609375 C 179.570312 71.632812 189.152344 72.332031 202.316406 71.007812 C 205.515625 70.683594 208.609375 69.730469 211.859375 69.476562 C 217.210938 69.058594 222.507812 71.300781 224.808594 76.375 C 226.964844 81.136719 225.46875 86.429688 221.996094 90.132812 C 220.105469 92.148438 217.910156 93.964844 215.851562 95.8125 C 213.894531 97.566406 211.1875 100.011719 209.949219 102.34375 C 208.390625 105.269531 208.953125 108.265625 211.210938 110.527344 C 214.0625 111.980469 217.082031 111.585938 219.386719 109.203125 C 221.21875 107.304688 222.710938 103.972656 223.773438 101.570312 C 224.894531 99.035156 225.945312 96.386719 227.277344 93.964844 C 229.742188 89.492188 234.261719 86.460938 239.492188 87.046875 C 245.027344 87.660156 248.796875 92.007812 250.054688 97.226562 C 250.820312 100.398438 250.867188 103.632812 251.546875 106.773438 C 254.355469 119.710938 257.984375 128.59375 271.140625 133.429688 L 271.261719 133.472656 " fill-opacity="1" fill-rule="evenodd"/><path fill="#ffffff" d="M 168.582031 62.117188 C 163.820312 68.171875 158.78125 71.378906 153.023438 72.863281 C 152.972656 72.929688 152.929688 72.996094 152.878906 73.070312 C 149.75 77.875 151.917969 87.746094 152.96875 93.042969 C 153.597656 96.203125 154.246094 98.953125 153.597656 97.691406 C 149.988281 90.644531 150.53125 79.84375 135.839844 73.625 L 135.507812 73.488281 L 135.007812 73.4375 C 132.027344 73.136719 128.707031 72.164062 125.523438 71.910156 C 115.328125 71.117188 110.601562 81.257812 117.355469 88.460938 C 120.957031 92.296875 127.441406 96.789062 129.78125 101.195312 C 132.042969 105.453125 130.859375 109.757812 127.679688 112.640625 L 168.347656 168.613281 L 168.785156 168.921875 L 168.785156 61.859375 L 168.582031 62.117188 " fill-opacity="1" fill-rule="evenodd"/><path fill="#cccccc" d="M 168.992188 62.117188 C 173.75 68.171875 178.789062 71.378906 184.550781 72.863281 C 184.597656 72.929688 184.640625 72.996094 184.691406 73.070312 C 187.824219 77.875 185.652344 87.746094 184.601562 93.042969 C 183.972656 96.203125 183.328125 98.953125 183.972656 97.691406 C 187.582031 90.644531 187.039062 79.84375 201.734375 73.625 L 202.066406 73.488281 L 202.5625 73.4375 C 205.542969 73.136719 208.863281 72.164062 212.050781 71.910156 C 222.242188 71.117188 226.96875 81.257812 220.214844 88.460938 C 216.617188 92.296875 210.128906 96.789062 207.789062 101.195312 C 205.527344 105.453125 206.710938 109.757812 209.890625 112.640625 L 169.222656 168.613281 L 168.785156 168.921875 L 168.785156 61.859375 L 168.992188 62.117188 " fill-opacity="1" fill-rule="evenodd"/><path fill="#ffffff" d="M 67.144531 136.117188 C 71.429688 142.511719 72.925781 148.292969 72.554688 154.234375 C 72.605469 154.296875 72.65625 154.359375 72.710938 154.429688 C 76.308594 158.894531 86.375 159.878906 91.730469 160.515625 C 94.929688 160.894531 97.746094 161.128906 96.347656 161.351562 C 88.53125 162.609375 78.425781 158.753906 67.972656 170.808594 L 67.734375 171.085938 L 67.535156 171.542969 C 66.332031 174.28125 64.375 177.136719 63.152344 180.089844 C 59.25 189.539062 67.429688 197.167969 76.367188 192.96875 C 81.128906 190.734375 87.40625 185.957031 92.324219 185.089844 C 97.066406 184.253906 100.796875 186.710938 102.558594 190.625 L 168.355469 169.242188 L 168.785156 168.921875 L 66.960938 135.839844 L 67.144531 136.117188 " fill-opacity="1" fill-rule="evenodd"/><path fill="#cccccc" d="M 67.273438 135.722656 C 74.496094 133.066406 79.109375 129.265625 82.296875 124.246094 C 82.375 124.222656 82.457031 124.199219 82.539062 124.179688 C 88.078125 122.679688 96.796875 127.796875 101.507812 130.4375 C 104.316406 132.007812 106.734375 133.472656 105.734375 132.46875 C 100.148438 126.859375 89.707031 124.035156 88.332031 108.140625 L 88.304688 107.78125 L 88.410156 107.292969 C 89.046875 104.363281 89.144531 100.90625 89.894531 97.796875 C 92.285156 87.855469 103.390625 86.496094 108.15625 95.148438 C 110.691406 99.753906 112.957031 107.308594 116.425781 110.898438 C 119.773438 114.363281 124.234375 114.566406 127.964844 112.441406 L 168.628906 168.414062 L 168.785156 168.921875 L 66.960938 135.839844 L 67.273438 135.722656 " fill-opacity="1" fill-rule="evenodd"/><path fill="#ffffff" d="M 106.175781 255.449219 C 113.582031 253.351562 119.542969 253.71875 125.074219 255.902344 C 125.152344 255.878906 125.230469 255.847656 125.3125 255.816406 C 130.671875 253.773438 134.71875 244.507812 136.976562 239.609375 C 138.328125 236.683594 139.421875 234.078125 139.203125 235.476562 C 137.980469 243.296875 131.191406 251.71875 139.429688 265.386719 L 139.613281 265.695312 L 139.988281 266.027344 C 142.222656 268.023438 144.335938 270.761719 146.765625 272.835938 C 154.546875 279.472656 164.328125 274.046875 163.097656 264.25 C 162.441406 259.027344 159.835938 251.582031 160.535156 246.640625 C 161.203125 241.871094 164.691406 239.082031 168.960938 238.613281 L 168.960938 169.425781 L 168.785156 168.921875 L 105.855469 255.539062 L 106.175781 255.449219 " fill-opacity="1" fill-rule="evenodd"/><path fill="#cccccc" d="M 105.839844 255.207031 C 105.546875 247.515625 103.359375 241.957031 99.566406 237.371094 C 99.570312 237.292969 99.574219 237.207031 99.578125 237.121094 C 99.867188 231.390625 107.425781 224.679688 111.390625 221.015625 C 113.753906 218.828125 115.894531 216.984375 114.632812 217.625 C 107.566406 221.203125 101.65625 230.261719 86.117188 226.652344 L 85.761719 226.570312 L 85.332031 226.316406 C 82.746094 224.808594 79.488281 223.648438 76.761719 221.976562 C 68.046875 216.628906 70.183594 205.648438 79.886719 203.789062 C 85.050781 202.800781 92.933594 202.980469 97.425781 200.789062 C 101.75 198.675781 103.324219 194.496094 102.453125 190.292969 L 168.25 168.914062 L 168.785156 168.921875 L 105.855469 255.539062 L 105.839844 255.207031 " fill-opacity="1" fill-rule="evenodd"/><path fill="#ffffff" d="M 231.730469 255.207031 C 232.023438 247.515625 234.210938 241.957031 238.003906 237.371094 C 238 237.292969 237.996094 237.207031 237.992188 237.121094 C 237.703125 231.390625 230.144531 224.679688 226.179688 221.015625 C 223.816406 218.828125 221.675781 216.984375 222.941406 217.625 C 230 221.203125 235.914062 230.261719 251.453125 226.652344 L 251.808594 226.570312 L 252.238281 226.316406 C 254.828125 224.808594 258.082031 223.648438 260.808594 221.976562 C 269.523438 216.628906 267.386719 205.648438 257.6875 203.789062 C 252.519531 202.800781 244.636719 202.980469 240.148438 200.789062 C 235.820312 198.675781 234.246094 194.496094 235.121094 190.292969 L 169.320312 168.914062 L 168.785156 168.921875 L 231.714844 255.539062 L 231.730469 255.207031 " fill-opacity="1" fill-rule="evenodd"/><path fill="#cccccc" d="M 231.394531 255.449219 C 223.988281 253.351562 218.027344 253.714844 212.496094 255.902344 C 212.417969 255.878906 212.339844 255.847656 212.261719 255.816406 C 206.898438 253.773438 202.851562 244.507812 200.59375 239.609375 C 199.246094 236.683594 198.148438 234.078125 198.367188 235.476562 C 199.589844 243.296875 206.378906 251.71875 198.144531 265.386719 L 197.957031 265.695312 L 197.582031 266.027344 C 195.351562 268.023438 193.238281 270.761719 190.804688 272.835938 C 183.023438 279.472656 173.242188 274.046875 174.472656 264.25 C 175.128906 259.027344 177.738281 251.582031 177.039062 246.640625 C 176.367188 241.871094 172.878906 239.082031 168.613281 238.613281 L 168.613281 169.425781 L 168.785156 168.921875 L 231.714844 255.539062 L 231.394531 255.449219 " fill-opacity="1" fill-rule="evenodd"/><path fill="#ffffff" d="M 270.300781 135.722656 C 263.074219 133.066406 258.460938 129.265625 255.273438 124.246094 C 255.195312 124.21875 255.117188 124.199219 255.03125 124.175781 C 249.492188 122.679688 240.773438 127.796875 236.066406 130.4375 C 233.253906 132.007812 230.839844 133.472656 231.835938 132.46875 C 237.421875 126.859375 247.867188 124.035156 249.238281 108.140625 L 249.265625 107.777344 L 249.160156 107.292969 C 248.523438 104.363281 248.425781 100.90625 247.675781 97.796875 C 245.285156 87.855469 234.183594 86.496094 229.417969 95.148438 C 226.878906 99.753906 224.613281 107.308594 221.144531 110.898438 C 217.796875 114.363281 213.335938 114.566406 209.609375 112.441406 L 168.941406 168.414062 L 168.785156 168.921875 L 270.609375 135.839844 L 270.300781 135.722656 " fill-opacity="1" fill-rule="evenodd"/><path fill="#cccccc" d="M 270.425781 136.117188 C 266.140625 142.511719 264.644531 148.292969 265.015625 154.234375 C 264.96875 154.292969 264.914062 154.359375 264.859375 154.429688 C 261.261719 158.894531 251.199219 159.878906 245.839844 160.515625 C 242.640625 160.894531 239.824219 161.128906 241.222656 161.351562 C 249.039062 162.609375 259.144531 158.753906 269.601562 170.808594 L 269.835938 171.082031 L 270.035156 171.542969 C 271.242188 174.28125 273.195312 177.136719 274.417969 180.089844 C 278.324219 189.539062 270.144531 197.167969 261.203125 192.96875 C 256.441406 190.734375 250.167969 185.957031 245.25 185.089844 C 240.503906 184.253906 236.773438 186.710938 235.011719 190.625 L 169.210938 169.242188 L 168.785156 168.921875 L 270.609375 135.839844 L 270.425781 136.117188 " fill-opacity="1" fill-rule="evenodd"/><path fill="#000000" d="M 165.335938 168.902344 L 168.785156 61.746094 L 172.234375 168.902344 Z M 165.335938 168.902344 " fill-opacity="1" fill-rule="evenodd"/><path fill="#000000" d="M 167.722656 172.179688 L 66.875 135.789062 L 169.851562 165.621094 Z M 167.722656 172.179688 " fill-opacity="1" fill-rule="evenodd"/><path fill="#000000" d="M 171.574219 170.929688 L 105.804688 255.589844 L 165.996094 166.871094 Z M 171.574219 170.929688 " fill-opacity="1" fill-rule="evenodd"/><path fill="#000000" d="M 171.574219 166.871094 L 231.769531 255.589844 L 165.996094 170.929688 Z M 171.574219 166.871094 " fill-opacity="1" fill-rule="evenodd"/><path fill="#000000" d="M 167.722656 165.621094 L 270.695312 135.789062 L 169.851562 172.179688 Z M 167.722656 165.621094 " fill-opacity="1" fill-rule="evenodd"/><path fill="#000000" d="M 168.785156 141.113281 C 172.855469 135.3125 178.179688 130.320312 184.800781 127.632812 C 191.070312 125.082031 197.941406 124.894531 204.214844 127.523438 C 209.332031 129.664062 213.488281 133.457031 216.289062 138.234375 C 219.488281 143.699219 220.6875 150.015625 220.378906 156.300781 C 219.417969 175.8125 203.816406 193.023438 189.230469 204.535156 C 185.492188 207.484375 181.605469 210.253906 177.605469 212.835938 C 175.8125 213.996094 173.964844 215.066406 172.140625 216.167969 C 171.421875 216.605469 170.707031 217.046875 169.992188 217.484375 C 169.207031 217.960938 168.292969 217.972656 167.496094 217.515625 C 164.933594 216.035156 162.441406 214.441406 159.960938 212.832031 C 155.96875 210.242188 152.078125 207.484375 148.339844 204.535156 C 133.753906 193.023438 118.152344 175.8125 117.191406 156.300781 C 116.882812 150.027344 118.078125 143.714844 121.269531 138.253906 C 124.058594 133.492188 128.203125 129.703125 133.308594 127.558594 C 139.589844 124.917969 146.472656 125.097656 152.753906 127.640625 C 159.382812 130.328125 164.710938 135.3125 168.785156 141.113281 " fill-opacity="1" fill-rule="evenodd"/><path fill="#ff0000" d="M 168.714844 215.398438 C 169.449219 214.953125 170.171875 214.503906 170.875 214.074219 C 172.675781 212.992188 174.519531 211.90625 176.28125 210.78125 C 180.210938 208.234375 184.039062 205.519531 187.714844 202.617188 C 201.652344 191.621094 217.015625 174.921875 217.9375 156.179688 C 219.347656 127.496094 186.777344 115.554688 168.785156 145.601562 C 150.839844 115.628906 118.21875 127.453125 119.632812 156.179688 C 120.558594 174.921875 135.917969 191.621094 149.855469 202.617188 C 153.53125 205.519531 157.359375 208.234375 161.289062 210.78125 C 163.730469 212.363281 166.191406 213.941406 168.714844 215.398438 " fill-opacity="1" fill-rule="evenodd"/><path fill="#cc0000" d="M 168.785156 215.355469 C 169.492188 214.921875 170.195312 214.488281 170.878906 214.074219 C 172.675781 212.992188 174.519531 211.910156 176.28125 210.78125 C 180.210938 208.234375 184.039062 205.519531 187.714844 202.617188 C 201.652344 191.621094 217.015625 174.921875 217.9375 156.179688 C 219.347656 127.496094 186.777344 115.554688 168.785156 145.601562 L 168.785156 215.355469 " fill-opacity="1" fill-rule="evenodd"/><path fill="#000000" d="M 163.269531 147.1875 L 174.304688 147.1875 L 174.304688 161.421875 L 190.089844 161.421875 L 190.089844 172.464844 L 174.304688 172.464844 L 174.304688 210.714844 L 163.269531 210.714844 L 163.269531 172.464844 L 147.480469 172.464844 L 147.480469 161.421875 L 163.269531 161.421875 L 163.269531 147.1875 " fill-opacity="1" fill-rule="evenodd"/><path fill="#000000" d="M 27.757812 193.742188 L 45.03125 190.199219 L 44.996094 189.933594 L 27.289062 190.671875 L 26.769531 187.285156 L 43.898438 182.722656 L 43.859375 182.460938 C 40.585938 181.871094 37.675781 181.769531 35.125 182.160156 C 32.558594 182.546875 30.558594 183.386719 29.132812 184.667969 L 26.4375 185.078125 L 25.714844 180.328125 L 28.410156 179.917969 L 28.644531 181.453125 C 30.382812 180.402344 32.308594 179.710938 34.4375 179.386719 C 36.019531 179.148438 37.777344 179.101562 39.710938 179.253906 C 41.636719 179.402344 43.828125 179.726562 46.273438 180.226562 L 46.957031 184.71875 L 34.503906 187.828125 L 47.324219 187.121094 L 48.125 192.394531 L 28.195312 196.640625 Z M 30.09375 168.667969 C 28.605469 168.636719 27.460938 168.226562 26.65625 167.425781 C 25.851562 166.628906 25.480469 165.476562 25.546875 163.976562 C 25.617188 162.488281 26.089844 161.386719 26.972656 160.664062 C 27.855469 159.9375 29.027344 159.628906 30.492188 159.734375 L 42.128906 160.605469 C 43.433594 160.742188 44.445312 161.160156 45.167969 161.855469 C 45.890625 162.554688 46.222656 163.566406 46.164062 164.894531 C 46.101562 166.242188 45.679688 167.238281 44.898438 167.890625 C 44.117188 168.539062 43.074219 168.851562 41.761719 168.832031 Z M 41.507812 165.949219 C 42.175781 165.9375 42.660156 165.847656 42.960938 165.675781 C 43.261719 165.503906 43.421875 165.199219 43.4375 164.769531 C 43.457031 164.34375 43.324219 164.03125 43.039062 163.84375 C 42.753906 163.65625 42.28125 163.527344 41.621094 163.457031 L 30.769531 162.683594 C 29.953125 162.644531 29.335938 162.730469 28.925781 162.933594 C 28.515625 163.140625 28.296875 163.527344 28.273438 164.09375 C 28.246094 164.660156 28.433594 165.074219 28.835938 165.324219 C 29.234375 165.574219 29.832031 165.71875 30.636719 165.753906 Z M 27.054688 147.851562 L 28.699219 139.246094 L 30.65625 139.621094 C 33.496094 140.160156 35.476562 141.089844 36.601562 142.394531 C 37.769531 141.605469 39.171875 141.367188 40.828125 141.683594 C 41.09375 141.734375 41.304688 141.78125 41.453125 141.832031 L 48.570312 143.640625 L 48.015625 146.519531 L 40.910156 144.683594 L 40.425781 144.5625 C 39.214844 144.332031 38.316406 144.554688 37.730469 145.238281 C 37.746094 145.78125 37.699219 146.324219 37.589844 146.882812 L 47.585938 148.792969 L 47.03125 151.671875 Z M 34.914062 146.375 C 35.066406 145.585938 34.824219 144.84375 34.195312 144.144531 C 33.5625 143.449219 32.582031 142.972656 31.257812 142.71875 L 30.824219 142.636719 L 30.28125 145.484375 Z M 31.5 127.84375 L 32.9375 123.6875 C 33.183594 122.96875 33.570312 122.347656 34.105469 121.828125 C 34.632812 121.304688 35.25 120.957031 35.953125 120.777344 C 36.65625 120.59375 37.367188 120.625 38.089844 120.875 L 49.777344 125.277344 C 50.800781 125.671875 51.539062 126.355469 52 127.328125 C 52.460938 128.304688 52.515625 129.304688 52.164062 130.316406 L 50.730469 134.476562 Z M 49.585938 129.429688 C 49.796875 128.816406 49.417969 128.335938 48.445312 127.980469 L 37.417969 123.804688 C 36.945312 123.625 36.542969 123.605469 36.207031 123.765625 C 35.878906 123.914062 35.644531 124.1875 35.511719 124.578125 L 35.035156 125.960938 L 49.113281 130.8125 Z M 72.808594 77.308594 C 71.277344 75.824219 70.570312 74.339844 70.679688 72.859375 C 70.789062 71.375 71.480469 70.03125 72.765625 68.828125 L 71.542969 67.484375 L 67.546875 71.234375 L 65.679688 69.25 L 71.8125 63.488281 L 85.738281 78.320312 L 83.601562 80.324219 L 79.066406 75.496094 L 77.058594 77.382812 L 81.824219 81.992188 L 79.6875 83.996094 Z M 75.085938 75.496094 L 77.199219 73.511719 L 74.652344 70.796875 C 73.9375 71.460938 73.585938 72.171875 73.589844 72.917969 C 73.59375 73.664062 74.039062 74.464844 74.925781 75.324219 Z M 80.308594 56.273438 L 82.636719 54.492188 L 93.347656 68.472656 L 95.210938 67.042969 L 92.804688 63.902344 L 95.128906 62.121094 L 99.195312 67.421875 L 92.683594 72.414062 Z M 98.382812 49.445312 C 97.632812 48.164062 97.390625 46.96875 97.652344 45.867188 C 97.914062 44.765625 98.707031 43.851562 100.027344 43.125 C 101.328125 42.410156 102.515625 42.242188 103.59375 42.617188 C 104.671875 42.996094 105.546875 43.835938 106.21875 45.140625 L 111.527344 55.535156 C 112.089844 56.71875 112.261719 57.800781 112.039062 58.777344 C 111.820312 59.761719 111.128906 60.570312 109.964844 61.207031 C 108.785156 61.859375 107.710938 62.019531 106.75 61.6875 C 105.785156 61.359375 104.976562 60.628906 104.3125 59.5 Z M 106.644531 57.785156 C 106.996094 58.347656 107.328125 58.710938 107.632812 58.878906 C 107.933594 59.046875 108.273438 59.027344 108.652344 58.820312 C 109.027344 58.613281 109.222656 58.339844 109.238281 58 C 109.25 57.65625 109.113281 57.183594 108.824219 56.582031 L 103.84375 46.910156 C 103.449219 46.191406 103.058594 45.710938 102.667969 45.472656 C 102.28125 45.226562 101.835938 45.242188 101.339844 45.515625 C 100.84375 45.789062 100.589844 46.160156 100.582031 46.632812 C 100.574219 47.105469 100.765625 47.695312 101.148438 48.394531 Z M 114.804688 36.160156 L 117.558594 35.148438 L 119.46875 40.378906 L 123.042969 41.695312 L 120.28125 34.152344 L 123.035156 33.140625 L 130.027344 52.246094 L 127.273438 53.253906 L 124.269531 45.050781 L 120.699219 43.738281 L 124.550781 54.25 L 121.796875 55.257812 Z M 135.414062 33.59375 C 135.15625 32.3125 135.320312 31.265625 135.914062 30.457031 C 136.507812 29.648438 137.417969 29.117188 138.644531 28.871094 L 142.808594 28.023438 L 143.949219 33.652344 L 141.078125 34.238281 L 140.476562 31.277344 L 139.386719 31.5 C 138.484375 31.683594 138.132812 32.242188 138.320312 33.179688 L 138.960938 36.3125 L 142.691406 35.554688 L 143.238281 38.226562 L 139.503906 38.980469 L 141 46.367188 L 143.386719 45.882812 L 142.597656 42.003906 L 145.472656 41.417969 L 146.804688 47.96875 L 138.671875 49.621094 Z M 201.207031 29.425781 L 209.128906 31.339844 L 207.78125 36.921875 L 204.933594 36.234375 L 205.640625 33.300781 L 203.417969 32.761719 L 202.332031 37.265625 L 205.578125 38.046875 L 204.941406 40.699219 L 201.695312 39.917969 L 199.289062 49.890625 L 196.441406 49.203125 Z M 215.257812 44.871094 C 215.957031 42.855469 217.003906 41.585938 218.390625 41.054688 C 219.78125 40.527344 221.289062 40.585938 222.925781 41.238281 L 223.625 39.5625 L 218.535156 37.53125 L 219.546875 35 L 227.359375 38.117188 L 219.816406 57.011719 L 217.097656 55.921875 L 219.550781 49.769531 L 216.992188 48.746094 L 214.835938 55.019531 L 212.117188 53.9375 Z M 217.867188 46.164062 L 220.5625 47.238281 L 221.941406 43.78125 C 221.035156 43.421875 220.246094 43.398438 219.570312 43.714844 C 218.894531 44.035156 218.359375 44.78125 217.953125 45.945312 Z M 228.957031 58.648438 L 230.226562 59.382812 L 237.667969 46.484375 L 236.398438 45.753906 L 237.761719 43.390625 L 242.8125 46.308594 L 241.453125 48.671875 L 240.207031 47.953125 L 232.765625 60.847656 L 234.007812 61.5625 L 232.648438 63.925781 L 227.59375 61.011719 Z M 251.902344 52.085938 L 261.007812 59.28125 L 257.445312 63.785156 L 255.171875 61.988281 L 257.039062 59.617188 L 255.914062 58.730469 L 244.988281 72.546875 L 242.691406 70.730469 L 253.613281 56.910156 L 252.488281 56.023438 L 250.617188 58.390625 L 248.339844 56.589844 Z M 269.488281 66.984375 L 271.492188 69.125 L 266.132812 74.15625 L 268.09375 76.25 L 273.460938 71.214844 L 275.464844 73.351562 L 260.636719 87.277344 L 258.628906 85.140625 L 266.109375 78.117188 L 264.140625 76.023438 L 256.664062 83.042969 L 254.660156 80.910156 Z M 294.480469 127.339844 C 296.488281 126.613281 298.132812 126.625 299.417969 127.375 C 300.703125 128.121094 301.605469 129.335938 302.125 131.015625 L 303.871094 130.507812 L 302.246094 125.269531 L 304.851562 124.464844 L 307.34375 132.5 L 287.914062 138.519531 L 287.042969 135.71875 L 293.371094 133.757812 L 292.558594 131.125 L 286.324219 133.394531 L 285.457031 130.597656 Z M 295.117188 130.179688 L 295.976562 132.953125 L 299.53125 131.851562 C 299.242188 130.917969 298.761719 130.289062 298.089844 129.964844 C 297.414062 129.644531 296.5 129.691406 295.34375 130.113281 Z M 309.832031 144.402344 L 310.269531 147.304688 L 292.855469 149.953125 L 293.207031 152.269531 L 297.121094 151.675781 L 297.558594 154.574219 L 290.953125 155.578125 L 289.71875 147.464844 Z M 307.269531 163.449219 C 308.753906 163.402344 309.917969 163.761719 310.761719 164.519531 C 311.601562 165.277344 312.027344 166.410156 312.035156 167.914062 C 312.039062 169.398438 311.617188 170.523438 310.769531 171.292969 C 309.921875 172.054688 308.769531 172.421875 307.300781 172.386719 L 295.636719 172.082031 C 294.328125 172.011719 293.292969 171.640625 292.539062 170.980469 C 291.785156 170.320312 291.40625 169.324219 291.398438 167.996094 C 291.394531 166.648438 291.765625 165.628906 292.515625 164.941406 C 293.265625 164.253906 294.296875 163.886719 295.605469 163.847656 Z M 295.996094 166.714844 C 295.332031 166.757812 294.855469 166.871094 294.5625 167.058594 C 294.269531 167.246094 294.121094 167.554688 294.125 167.984375 C 294.125 168.414062 294.273438 168.71875 294.570312 168.890625 C 294.859375 169.066406 295.34375 169.171875 296.007812 169.207031 L 306.882812 169.457031 C 307.703125 169.457031 308.3125 169.339844 308.710938 169.117188 C 309.113281 168.886719 309.308594 168.492188 309.308594 167.925781 C 309.304688 167.355469 309.097656 166.960938 308.6875 166.726562 C 308.277344 166.492188 307.671875 166.378906 306.867188 166.382812 Z M 311.140625 184.089844 L 310.730469 186.988281 L 305.214844 186.210938 L 302.371094 188.734375 L 310.320312 189.863281 L 309.910156 192.765625 L 289.773438 189.910156 L 290.183594 187.007812 L 298.832031 188.234375 L 301.671875 185.707031 L 290.589844 184.132812 L 291 181.230469 Z M 303.613281 203.339844 C 304.867188 203.703125 305.714844 204.339844 306.152344 205.242188 C 306.59375 206.144531 306.632812 207.191406 306.285156 208.394531 L 305.089844 212.472656 L 299.578125 210.863281 L 300.398438 208.050781 L 303.296875 208.894531 L 303.613281 207.828125 C 303.867188 206.945312 303.539062 206.371094 302.621094 206.101562 L 299.550781 205.207031 L 298.484375 208.859375 L 295.867188 208.097656 L 296.9375 204.4375 L 289.703125 202.328125 L 289.023438 204.664062 L 292.820312 205.773438 L 292 208.585938 L 285.582031 206.710938 L 287.910156 198.75 Z M 272.660156 260.648438 C 273.742188 261.636719 274.328125 262.699219 274.417969 263.828125 C 274.507812 264.960938 274.039062 266.0625 273.003906 267.132812 C 272.015625 268.15625 270.953125 268.652344 269.808594 268.609375 C 268.667969 268.570312 267.585938 268.023438 266.554688 266.980469 L 265.753906 266.164062 L 267.789062 264.054688 L 268.316406 264.5625 C 268.890625 265.117188 269.40625 265.460938 269.847656 265.59375 C 270.292969 265.722656 270.691406 265.605469 271.042969 265.238281 C 271.421875 264.847656 271.546875 264.425781 271.402344 263.980469 C 271.265625 263.53125 270.90625 263.03125 270.332031 262.476562 L 262.300781 255.136719 C 261.808594 254.71875 261.390625 254.464844 261.050781 254.382812 C 260.710938 254.296875 260.402344 254.40625 260.113281 254.699219 C 259.84375 254.980469 259.753906 255.289062 259.851562 255.628906 C 259.949219 255.964844 260.214844 256.371094 260.652344 256.847656 L 264.476562 260.777344 L 265.433594 259.785156 L 267.394531 261.679688 L 264.339844 264.84375 L 258.363281 258.667969 C 257.472656 257.707031 256.988281 256.722656 256.910156 255.71875 C 256.828125 254.722656 257.242188 253.75 258.15625 252.804688 C 259.0625 251.867188 260.023438 251.40625 261.039062 251.4375 C 262.054688 251.46875 263.050781 251.925781 264.019531 252.804688 Z M 261.34375 278.183594 L 254.386719 283.515625 L 253.175781 281.933594 C 251.414062 279.640625 250.550781 277.628906 250.585938 275.902344 C 249.1875 275.722656 247.980469 274.960938 246.957031 273.625 C 246.792969 273.410156 246.667969 273.234375 246.585938 273.097656 L 242.480469 267.015625 L 244.804688 265.230469 L 248.890625 271.332031 L 249.167969 271.746094 C 249.921875 272.722656 250.742188 273.152344 251.632812 273.03125 C 251.984375 272.617188 252.382812 272.238281 252.832031 271.894531 L 246.644531 263.824219 L 248.96875 262.039062 Z M 254.488281 274.058594 C 253.851562 274.546875 253.539062 275.257812 253.546875 276.203125 C 253.554688 277.144531 253.96875 278.148438 254.789062 279.21875 L 255.054688 279.570312 L 257.359375 277.804688 Z M 240.222656 280.238281 C 241.425781 282 241.828125 283.59375 241.421875 285.027344 C 241.023438 286.457031 240.074219 287.636719 238.578125 288.558594 L 239.503906 290.121094 L 244.171875 287.246094 L 245.601562 289.5625 L 238.441406 293.984375 L 227.757812 276.675781 L 230.25 275.132812 L 233.730469 280.769531 L 236.074219 279.320312 L 232.320312 273.855469 L 234.816406 272.316406 Z M 237.628906 281.566406 L 235.164062 283.089844 L 237.121094 286.253906 C 237.953125 285.742188 238.4375 285.121094 238.582031 284.386719 C 238.726562 283.65625 238.453125 282.78125 237.753906 281.761719 Z M 225.980469 295 C 226.589844 296.332031 226.710938 297.539062 226.351562 298.613281 C 225.992188 299.691406 225.128906 300.519531 223.757812 301.101562 C 222.445312 301.65625 221.273438 301.695312 220.242188 301.207031 C 219.203125 300.722656 218.421875 299.796875 217.882812 298.433594 L 217.464844 297.371094 L 220.164062 296.226562 L 220.449219 296.898438 C 220.765625 297.636719 221.097656 298.15625 221.457031 298.445312 C 221.8125 298.742188 222.226562 298.785156 222.695312 298.589844 C 223.199219 298.375 223.472656 298.035156 223.519531 297.570312 C 223.566406 297.105469 223.433594 296.503906 223.121094 295.765625 L 218.601562 285.871094 C 218.316406 285.292969 218.03125 284.898438 217.75 284.6875 C 217.472656 284.476562 217.140625 284.453125 216.761719 284.613281 C 216.402344 284.765625 216.203125 285.015625 216.160156 285.363281 C 216.113281 285.710938 216.203125 286.1875 216.417969 286.796875 L 217.886719 290.632812 L 215.1875 291.777344 L 213.597656 287.582031 C 213.160156 286.34375 213.097656 285.25 213.417969 284.296875 C 213.734375 283.347656 214.496094 282.613281 215.699219 282.105469 C 216.902344 281.59375 217.96875 281.546875 218.894531 281.976562 C 219.816406 282.402344 220.550781 283.207031 221.097656 284.398438 Z M 207.800781 302.457031 C 208.125 303.726562 208.011719 304.78125 207.460938 305.613281 C 206.910156 306.453125 206.027344 307.027344 204.8125 307.339844 L 200.695312 308.390625 L 199.273438 302.824219 L 202.109375 302.097656 L 202.859375 305.019531 L 203.941406 304.746094 C 204.828125 304.519531 205.15625 303.941406 204.917969 303.011719 L 204.125 299.917969 L 200.4375 300.863281 L 199.757812 298.222656 L 203.453125 297.277344 L 201.585938 289.980469 L 199.226562 290.585938 L 200.207031 294.417969 L 197.367188 295.144531 L 195.710938 288.667969 L 203.746094 286.613281 Z M 144.179688 299.039062 C 143.777344 301.136719 142.925781 302.542969 141.625 303.261719 C 140.328125 303.984375 138.824219 304.140625 137.113281 303.726562 L 136.660156 305.488281 L 141.984375 306.773438 L 141.347656 309.425781 L 133.167969 307.449219 L 137.9375 287.675781 L 140.785156 288.363281 L 139.234375 294.804688 L 141.914062 295.449219 L 143.152344 288.933594 L 146 289.621094 Z M 141.414062 298.132812 L 138.59375 297.453125 L 137.722656 301.070312 C 138.671875 301.300781 139.457031 301.210938 140.082031 300.796875 C 140.703125 300.382812 141.128906 299.574219 141.359375 298.363281 Z M 121.613281 304.09375 L 118.890625 303.007812 L 125.417969 286.648438 L 123.242188 285.777344 L 121.777344 289.453125 L 119.050781 288.363281 L 121.53125 282.15625 L 129.152344 285.199219 Z M 107.09375 292.871094 C 106.449219 294.207031 105.59375 295.078125 104.53125 295.476562 C 103.46875 295.871094 102.269531 295.726562 100.933594 295.039062 C 99.613281 294.359375 98.808594 293.46875 98.519531 292.363281 C 98.230469 291.257812 98.4375 290.066406 99.144531 288.777344 L 104.796875 278.566406 C 105.464844 277.441406 106.269531 276.695312 107.203125 276.328125 C 108.136719 275.964844 109.195312 276.085938 110.378906 276.695312 C 111.574219 277.308594 112.308594 278.109375 112.570312 279.09375 C 112.832031 280.074219 112.683594 281.15625 112.117188 282.335938 Z M 109.390625 281.363281 C 109.660156 280.753906 109.777344 280.277344 109.75 279.929688 C 109.71875 279.585938 109.511719 279.316406 109.128906 279.117188 C 108.75 278.921875 108.410156 278.910156 108.121094 279.09375 C 107.832031 279.273438 107.515625 279.648438 107.175781 280.21875 L 101.9375 289.757812 C 101.5625 290.484375 101.382812 291.078125 101.398438 291.539062 C 101.417969 291.996094 101.675781 292.355469 102.179688 292.617188 C 102.683594 292.875 103.132812 292.875 103.53125 292.617188 C 103.925781 292.363281 104.308594 291.878906 104.671875 291.164062 Z M 87.191406 286.460938 L 84.808594 284.757812 L 88.046875 280.226562 L 87.113281 276.535156 L 82.449219 283.070312 L 80.0625 281.367188 L 91.886719 264.8125 L 94.269531 266.519531 L 89.195312 273.625 L 90.125 277.316406 L 96.632812 268.203125 L 99.015625 269.90625 Z M 73.792969 270.5625 C 72.882812 271.503906 71.925781 271.960938 70.925781 271.929688 C 69.921875 271.898438 68.972656 271.449219 68.070312 270.582031 L 65.011719 267.632812 L 69 263.496094 L 71.109375 265.53125 L 69.011719 267.707031 L 69.816406 268.480469 C 70.476562 269.113281 71.140625 269.089844 71.804688 268.398438 L 74.023438 266.101562 L 71.277344 263.457031 L 73.171875 261.492188 L 75.914062 264.136719 L 81.144531 258.71875 L 79.390625 257.027344 L 76.644531 259.875 L 74.535156 257.839844 L 79.171875 253.03125 L 85.144531 258.789062 L 73.792969 270.5625 " fill-opacity="1" fill-rule="nonzero"/><path fill="#000000" d="M 124.726562 108.589844 C 122.929688 109.300781 121.28125 108.886719 119.941406 107.503906 C 118.300781 105.808594 116.988281 102.746094 116.03125 100.578125 C 114.875 97.964844 113.816406 95.296875 112.4375 92.789062 C 112.25 92.453125 112.050781 92.121094 111.84375 91.792969 C 111.636719 91.46875 111.71875 91.035156 112.03125 90.808594 C 112.347656 90.582031 112.78125 90.636719 113.03125 90.933594 C 113.273438 91.234375 113.527344 91.519531 113.789062 91.804688 C 115.746094 93.890625 117.957031 95.722656 120.085938 97.632812 C 121.855469 99.214844 124.359375 101.40625 125.46875 103.492188 C 126.367188 105.1875 126.25 106.890625 125.019531 108.375 C 124.9375 108.472656 124.84375 108.542969 124.726562 108.589844 Z M 225.726562 91.792969 C 225.519531 92.117188 225.324219 92.453125 225.136719 92.789062 C 223.753906 95.296875 222.695312 97.964844 221.539062 100.578125 C 220.582031 102.746094 219.269531 105.808594 217.628906 107.503906 C 216.292969 108.886719 214.640625 109.300781 212.84375 108.589844 C 212.726562 108.542969 212.632812 108.472656 212.550781 108.375 C 211.320312 106.890625 211.203125 105.1875 212.105469 103.492188 C 213.210938 101.40625 215.71875 99.214844 217.484375 97.632812 C 219.613281 95.722656 221.824219 93.890625 223.78125 91.804688 C 224.042969 91.519531 224.296875 91.234375 224.542969 90.933594 C 224.789062 90.636719 225.226562 90.582031 225.539062 90.804688 C 225.855469 91.035156 225.9375 91.46875 225.726562 91.792969 Z M 259.695312 199.230469 C 259.335938 199.136719 258.972656 199.0625 258.605469 198.988281 C 255.796875 198.449219 252.929688 198.269531 250.085938 197.976562 C 247.730469 197.730469 244.414062 197.429688 242.292969 196.398438 C 240.574219 195.558594 239.664062 194.097656 239.785156 192.183594 C 239.789062 192.050781 239.824219 191.945312 239.894531 191.835938 C 240.929688 190.210938 242.515625 189.570312 244.402344 189.902344 C 246.726562 190.308594 249.585938 192.015625 251.636719 193.207031 C 254.109375 194.640625 256.535156 196.179688 259.125 197.394531 C 259.460938 197.550781 259.800781 197.699219 260.148438 197.839844 C 260.503906 197.984375 260.6875 198.378906 260.570312 198.746094 C 260.449219 199.113281 260.066406 199.324219 259.695312 199.230469 Z M 168.054688 264.785156 C 168.03125 264.402344 167.996094 264.023438 167.945312 263.640625 C 167.589844 260.800781 166.878906 258.019531 166.277344 255.222656 C 165.78125 252.90625 165.042969 249.660156 165.371094 247.324219 C 165.640625 245.414062 166.726562 244.113281 168.605469 243.632812 C 168.730469 243.601562 168.839844 243.601562 168.964844 243.632812 C 170.84375 244.113281 171.929688 245.414062 172.203125 247.324219 C 172.527344 249.660156 171.789062 252.90625 171.292969 255.226562 C 170.691406 258.019531 169.980469 260.800781 169.625 263.640625 C 169.578125 264.023438 169.539062 264.402344 169.519531 264.785156 C 169.492188 265.171875 169.171875 265.476562 168.785156 265.476562 C 168.398438 265.476562 168.078125 265.171875 168.054688 264.785156 Z M 77.425781 197.839844 C 77.769531 197.699219 78.109375 197.550781 78.445312 197.394531 C 81.035156 196.179688 83.460938 194.640625 85.933594 193.207031 C 87.984375 192.015625 90.84375 190.308594 93.167969 189.902344 C 95.054688 189.570312 96.640625 190.210938 97.675781 191.835938 C 97.746094 191.945312 97.78125 192.050781 97.789062 192.183594 C 97.90625 194.097656 96.996094 195.558594 95.277344 196.398438 C 93.15625 197.429688 89.84375 197.730469 87.484375 197.976562 C 84.640625 198.269531 81.773438 198.449219 78.964844 198.988281 C 78.601562 199.0625 78.238281 199.136719 77.878906 199.230469 C 77.503906 199.324219 77.121094 199.113281 77.003906 198.746094 C 76.882812 198.378906 77.066406 197.984375 77.425781 197.839844 " fill-opacity="1" fill-rule="evenodd"/><path fill="#ffcc00" d="M 123.707031 106.875 C 124.238281 106.085938 124.214844 105.304688 123.742188 104.410156 C 122.757812 102.5625 120.34375 100.484375 118.78125 99.085938 C 118.097656 98.472656 117.410156 97.867188 116.71875 97.261719 C 117.085938 98.101562 117.449219 98.945312 117.820312 99.789062 C 118.667969 101.703125 119.894531 104.644531 121.347656 106.144531 C 122.054688 106.875 122.789062 107.140625 123.707031 106.875 Z M 220.851562 97.261719 C 220.160156 97.867188 219.472656 98.472656 218.789062 99.085938 C 217.226562 100.484375 214.8125 102.5625 213.828125 104.410156 C 213.355469 105.304688 213.332031 106.085938 213.867188 106.875 C 214.78125 107.140625 215.515625 106.875 216.222656 106.144531 C 217.675781 104.644531 218.90625 101.699219 219.753906 99.789062 C 220.121094 98.945312 220.484375 98.101562 220.851562 97.261719 Z M 253.03125 196.292969 C 252.238281 195.828125 251.449219 195.359375 250.660156 194.898438 C 248.84375 193.847656 246.117188 192.191406 244.0625 191.828125 C 243.070312 191.652344 242.3125 191.875 241.726562 192.625 C 241.761719 193.5625 242.246094 194.199219 243.148438 194.640625 C 245.023438 195.554688 248.203125 195.816406 250.289062 196.03125 C 251.199219 196.125 252.117188 196.207031 253.03125 196.292969 Z M 168.785156 257.5 C 168.984375 256.605469 169.1875 255.710938 169.378906 254.816406 C 169.820312 252.765625 170.554688 249.660156 170.261719 247.59375 C 170.121094 246.582031 169.683594 245.941406 168.785156 245.617188 C 167.886719 245.941406 167.449219 246.582031 167.308594 247.59375 C 167.015625 249.660156 167.75 252.765625 168.191406 254.816406 C 168.382812 255.710938 168.585938 256.605469 168.785156 257.5 Z M 84.542969 196.292969 C 85.457031 196.207031 86.371094 196.125 87.285156 196.03125 C 89.367188 195.816406 92.546875 195.554688 94.421875 194.640625 C 95.324219 194.199219 95.808594 193.566406 95.84375 192.625 C 95.257812 191.875 94.5 191.652344 93.507812 191.828125 C 91.453125 192.191406 88.726562 193.847656 86.914062 194.898438 C 86.121094 195.359375 85.332031 195.828125 84.542969 196.292969 " fill-opacity="1" fill-rule="evenodd"/></svg>